<?xml version="1.0" standalone="no"?>
<!DOCTYPE svg PUBLIC "-//W3C//DTD SVG 20010904//EN"
 "http://www.w3.org/TR/2001/REC-SVG-20010904/DTD/svg10.dtd">
<svg version="1.0" xmlns="http://www.w3.org/2000/svg"
 width="786.000000pt" height="854.000000pt" viewBox="0 0 786.000000 854.000000"
 preserveAspectRatio="xMidYMid meet">

<g transform="translate(0.000000,854.000000) scale(0.100000,-0.100000)"
fill="#000000" stroke="none">
<path d="M10 8051 c0 -264 5 -548 10 -633 79 -1153 480 -2224 1181 -3148 895
-1182 2231 -1990 3684 -2229 399 -66 626 -80 1250 -81 l470 0 -748 -748 -747
-747 233 -233 232 -232 1143 1143 1143 1143 -1141 1140 c-628 626 -1143 1141
-1145 1143 -2 2 -109 -101 -237 -228 l-233 -231 745 -745 745 -746 -575 4
c-586 5 -644 8 -945 52 -312 45 -663 134 -977 246 -559 200 -1118 520 -1568
897 -98 82 -349 314 -399 369 -24 26 -72 77 -105 113 -34 36 -104 117 -157
180 -694 833 -1100 1831 -1189 2925 -6 72 -13 354 -17 628 l-6 497 -324 0
-323 0 0 -479z m6915 -5761 c3 -5 1 -10 -4 -10 -6 0 -11 5 -11 10 0 6 2 10 4
10 3 0 8 -4 11 -10z"/>
</g>
</svg>
