<svg width="124" height="123" viewBox="0 0 124 123" fill="none" xmlns="http://www.w3.org/2000/svg">
<g clip-path="url(#clip0_2443_57970)">
<path d="M62.0477 16.4982L61.2744 15.163L76.0504 6.629C76.1678 6.56058 76.3012 6.52452 76.4371 6.52452C76.5729 6.52452 76.7064 6.56058 76.8237 6.629L90.9766 14.8014L90.2033 16.1366L76.4343 8.18671L62.0477 16.4982Z" fill="#502551"/>
<path d="M40.3979 29.0444L46.5061 25.534L47.2766 26.8746L41.1684 30.385L40.3979 29.0444Z" fill="#502551"/>
<path d="M19.0215 61.4048L1.25803 51.1462C1.14145 51.078 1.04475 50.9805 0.977554 50.8634C0.910354 50.7463 0.875 50.6136 0.875 50.4786C0.875 50.3436 0.910354 50.2109 0.977554 50.0937C1.04475 49.9766 1.14145 49.8791 1.25803 49.811L23.8393 36.7763L24.607 38.1115L3.18848 50.4786L19.7948 60.0696L19.0215 61.4048ZM76.4399 94.4338C76.3029 94.4342 76.1684 94.3978 76.0504 94.3282L55.0603 82.2114L55.8336 80.8762L76.4176 92.7704L97.0017 80.8762L97.7749 82.217L76.8237 94.3115C76.7098 94.3875 76.5768 94.4299 76.4399 94.4338ZM133.842 61.4104L133.074 60.0752L149.686 50.4786L127.511 37.6831L128.284 36.3479L151.616 49.8054C151.733 49.8735 151.83 49.9709 151.897 50.088C151.964 50.2052 152 50.3379 152 50.473C152.001 50.6084 151.966 50.7415 151.899 50.8589C151.831 50.9762 151.734 51.0734 151.616 51.1406L133.842 61.4104Z" fill="#502551"/>
<path d="M46.6265 100.331H47.5499V139.457H46.6265V100.331ZM34.0034 93.3935H34.9269V132.52H34.0034V93.3935ZM117.942 95.285H118.865V132.52H117.942V95.285ZM105.319 102.228H106.242V140.097H105.319V102.228Z" fill="#B252B5"/>
<path d="M76.8231 118.278L76.0498 116.943L150.141 74.0167L150.442 50.4675H151.988L151.677 74.4784C151.676 74.6119 151.64 74.7428 151.573 74.858C151.505 74.9732 151.409 75.0687 151.293 75.1349L76.8231 118.278Z" fill="#502551"/>
<path d="M45.3635 89.6049H46.287V99.7023H45.3635V89.6049ZM32.1118 85.1877H33.0353V92.1307H32.1118V85.1877ZM92.5733 41.544L92.4231 40.6316C94.5409 40.3073 96.6158 39.7475 98.6094 38.9626C111.171 33.8333 115.171 21.6164 114.798 14.6568L115.722 14.6067C116.111 21.8389 111.967 34.512 98.9599 39.8194C96.9025 40.632 94.7601 41.2105 92.5733 41.544Z" fill="#B252B5"/>
<path d="M76.2617 40.2978C80.0081 35.1371 83.4002 29.7284 86.4147 24.1087C88.5064 20.2478 90.3646 16.2646 92.3674 12.3592C94.0363 9.15472 96.5843 4.73191 98.8319 2.99061C101.764 0.70968 106.298 0.0643607 109.452 2.38424C115.21 6.62344 127.844 12.7986 127.844 12.7986C125.107 11.2242 119.288 11.2688 115.143 14.6512C106.142 21.9836 87.7888 47.6636 87.7721 47.6858L76.2617 40.2978Z" fill="#B252B5"/>
<path d="M88.1504 47.9529L87.3993 47.3965C87.5774 47.1406 105.83 21.622 114.848 14.2673C117.433 12.2376 120.655 11.1943 123.939 11.3244C119.733 9.15472 112.957 5.51635 109.179 2.73472C106.047 0.431534 101.741 1.29381 99.1156 3.33553C96.7901 5.13246 94.1476 9.87795 92.779 12.5483C92.0076 14.0615 91.2473 15.5803 90.4981 17.1046C89.3242 19.4801 88.1059 21.9335 86.8208 24.3368C83.7936 29.9753 80.3885 35.4026 76.6289 40.5815L75.8945 40.0252C79.6214 34.8786 83.0002 29.4888 86.0085 23.8918C87.2825 21.5329 88.4953 19.0796 89.6692 16.7152C90.4258 15.1909 91.1768 13.6609 91.9556 12.1477C93.3576 9.41062 96.0836 4.53165 98.5481 2.62345C101.452 0.370331 106.225 -0.564283 109.725 2.01151C114.643 5.62762 124.745 10.7347 127.394 12.0587C127.628 12.155 127.855 12.2684 128.072 12.3981C128.171 12.4605 128.242 12.5578 128.271 12.6705C128.301 12.7831 128.287 12.9027 128.232 13.0054C128.177 13.1081 128.085 13.1863 127.975 13.2243C127.865 13.2623 127.745 13.2573 127.638 13.2103L127.032 12.9155C124.367 11.8028 119.271 11.8807 115.433 15.0073C106.476 22.3118 88.334 47.6969 88.1504 47.9529Z" fill="#B252B5"/>
<path d="M119.711 47.5801L119.155 46.8513C126.354 41.238 131.583 31.035 131.583 22.5956C131.583 18.0114 130.048 14.6011 127.26 12.9934L127.722 12.1923C130.81 13.9725 132.507 17.6665 132.507 22.5956C132.496 31.2798 127.121 41.7888 119.711 47.5801ZM59.8839 41.6052C57.5675 41.279 55.2972 40.6834 53.119 39.8305C40.1622 34.5454 35.9953 21.9001 36.3513 14.6957L37.2748 14.7402C36.9299 21.6831 40.9577 33.8667 53.4695 38.9738C55.579 39.8005 57.7787 40.3756 60.023 40.6872L59.8839 41.6052Z" fill="#B252B5"/>
<path d="M76.0168 40.6594C72.2014 35.3756 68.7373 29.8468 65.6468 24.1087C63.5551 20.2478 61.6969 16.2646 59.6942 12.3592C58.0252 9.15472 55.4772 4.73191 53.2297 2.99061C50.2923 0.70968 45.7638 0.0643607 42.6094 2.38424C36.8514 6.62344 24.2173 12.7986 24.2173 12.7986C26.9544 11.2242 32.7736 11.2688 36.9182 14.6512C45.9195 21.9836 64.9292 47.8305 64.9459 47.8472L76.0168 40.6594Z" fill="#B252B5"/>
<path d="M64.5733 48.1364C64.3897 47.8805 45.4579 22.2172 36.6346 15.0239C32.7904 11.8974 27.7 11.8028 25.0352 12.9266L24.4288 13.227C24.3223 13.274 24.2019 13.279 24.0918 13.241C23.9818 13.203 23.8901 13.1248 23.8352 13.0221C23.7804 12.9194 23.7663 12.7997 23.7959 12.6871C23.8255 12.5745 23.8966 12.4772 23.9949 12.4148C24.2125 12.2851 24.4394 12.1717 24.6736 12.0754C27.3329 10.7514 37.4246 5.6443 42.3425 2.02818C45.8418 -0.547606 50.6151 0.359192 53.5191 2.64013C55.9781 4.54832 58.7041 9.42733 60.1116 12.1645C60.8849 13.6777 61.6359 15.1964 62.3925 16.7152C63.5663 19.0907 64.7791 21.5441 66.0587 23.9085C69.1443 29.6226 72.597 35.1306 76.3952 40.398L75.6553 40.9543C71.8304 35.6497 68.3535 30.1026 65.2465 24.348C63.9558 21.9669 62.7374 19.5079 61.558 17.1157C60.8125 15.597 60.0615 14.0838 59.2882 12.5761C57.9196 9.90576 55.2715 5.16031 52.9517 3.36338C50.3202 1.32166 46.0254 0.459348 42.8877 2.76254C39.1103 5.54416 32.3175 9.18253 28.1284 11.3522C31.4117 11.224 34.6336 12.2671 37.2188 14.2952C46.2368 21.6442 65.1519 47.3465 65.3243 47.5857L64.5733 48.1364Z" fill="#B252B5"/>
<path d="M32.5404 47.7081C25.0245 41.9557 19.5669 31.3855 19.5669 22.5788C19.5669 17.444 21.0189 14.1171 24.0175 12.3981L24.4793 13.1992C21.8145 14.7347 20.5182 17.8056 20.5182 22.5788C20.5182 30.9849 25.9368 41.4939 33.1245 46.9682L32.5404 47.7081ZM65.3859 48.0029L64.5124 47.697C65.2913 45.4717 66.6932 43.5968 68.251 42.69L72.607 40.1754C73.0585 39.8677 73.583 39.6841 74.1279 39.6431C74.6727 39.6021 75.2188 39.7051 75.7113 39.9418L87.3329 46.6455L86.8712 47.4522L75.2718 40.7763C74.9131 40.6186 74.5198 40.5563 74.1299 40.5953C73.74 40.6342 73.3669 40.7732 73.0465 40.9988L68.6904 43.5134C67.3608 44.2811 66.0869 46.0057 65.3859 48.0029Z" fill="#B252B5"/>
<path d="M76.907 54.9292L76.0225 54.651C76.7679 52.2588 78.181 50.2783 79.7999 49.3492L84.1559 46.8291C85.786 45.8889 87.4049 46.1948 88.2783 47.6023L87.4883 48.0919C86.8764 47.1017 85.8193 46.9348 84.6177 47.6302L80.2617 50.1503C78.843 50.9681 77.5857 52.7539 76.907 54.9292ZM115.06 69.0376C108.757 65.7664 98.5203 58.9625 91.9612 52.7984L92.5954 52.1253C99.0933 58.2449 109.235 64.9764 115.483 68.2142L115.06 69.0376Z" fill="#B252B5"/>
<path d="M117.024 74.9458C115.588 66.3728 110.465 58.256 103.405 53.9779C96.345 49.6997 76.4619 54.8124 76.4619 54.8124L88.1169 47.9473C88.1169 47.9473 109.129 43.6858 117.552 46.4675C126.453 49.4216 134.798 58.1114 134.798 66.9903C134.798 71.3909 133.43 75.5522 130.948 77.0042L130.893 77.0431L113.263 87.4854L113.691 87.2295C116.156 85.7886 117.997 80.7316 117.024 74.9458Z" fill="#B252B5"/>
<path d="M113.252 87.9805C113.151 87.9805 113.053 87.9475 112.973 87.8866C112.893 87.8256 112.834 87.74 112.807 87.6429C112.78 87.5458 112.786 87.4425 112.823 87.3487C112.86 87.255 112.927 87.176 113.013 87.1238L113.447 86.8678C115.728 85.5048 117.519 80.6982 116.568 75.0181C115.121 66.4062 109.986 58.4952 103.166 54.3729C96.3453 50.2505 76.7738 55.1851 76.5791 55.2352C76.4709 55.2639 76.3561 55.2525 76.2558 55.2029C76.1555 55.1534 76.0766 55.0691 76.0337 54.9657C75.9909 54.8624 75.987 54.747 76.0229 54.641C76.0587 54.535 76.1318 54.4457 76.2286 54.3895L87.878 47.53C87.9227 47.5034 87.9716 47.4846 88.0227 47.4744C88.885 47.302 109.258 43.2352 117.703 46.0447C126.326 48.9209 135.249 57.5439 135.249 67.007C135.249 71.8582 133.658 75.9472 131.194 77.4214C131.169 77.4444 131.141 77.4631 131.11 77.4771L113.491 87.9137C113.42 87.9588 113.337 87.982 113.252 87.9805ZM117.48 74.8679C118.192 79.096 117.419 82.9012 116.028 85.3379L130.648 76.6759C130.567 76.7404 130.51 76.8309 130.488 76.9323C130.466 77.0337 130.479 77.1396 130.526 77.2323C130.472 77.1286 130.46 77.008 130.493 76.8958C130.527 76.7837 130.602 76.6889 130.704 76.6314C132.901 75.3241 134.326 71.5411 134.326 66.9959C134.326 57.95 125.725 49.683 117.408 46.9125C109.452 44.2644 89.6694 48.0808 88.2841 48.3534L79.2772 53.6552C85.1298 52.4146 98.081 50.2116 103.644 53.5718C110.693 57.8277 115.995 65.9834 117.48 74.8568V74.8679Z" fill="#B252B5"/>
<path d="M109.503 88.9429C107.176 88.8632 104.91 88.1746 102.932 86.9457C95.1716 82.4617 76.8574 56.1698 76.0841 55.0516L76.8462 54.5231C77.614 55.6357 95.8114 81.783 103.4 86.1446C105.239 87.2976 107.35 87.9444 109.519 88.0194C110.751 88.038 111.965 87.7268 113.035 87.1182L113.497 87.9193C112.28 88.6101 110.901 88.9635 109.503 88.9429ZM38.1872 68.8262L37.7588 68.0084C44.1176 64.6426 54.2705 57.8332 60.5681 51.836L61.2079 52.5036C54.8769 58.562 44.6294 65.4326 38.1872 68.8262Z" fill="#B252B5"/>
<path d="M35.8391 74.9458C37.2799 66.3728 42.3981 58.256 49.4579 53.9779C56.5177 49.6997 76.4619 54.8124 76.4619 54.8124L64.7513 47.9473C64.7513 47.9473 43.75 43.6858 35.3105 46.4675C26.4093 49.4216 18.0645 58.1114 18.0645 66.9903C18.0645 71.3909 19.433 75.5522 21.9142 77.0042L21.9699 77.0431L39.394 87.3407L39.7723 87.58C37.3133 86.1391 34.8488 80.7316 35.8391 74.9458Z" fill="#B252B5"/>
<path d="M39.7833 88.0751C39.6991 88.0745 39.6165 88.0515 39.5441 88.0083L39.3438 87.8859L39.1547 87.7635L21.7417 77.4715L21.6471 77.4103C19.1937 75.9193 17.6138 71.847 17.6138 67.007C17.6138 57.5495 26.515 48.9209 35.1658 46.0447C43.6053 43.263 63.9779 47.302 64.8403 47.4744C64.8913 47.4846 64.9402 47.5034 64.9849 47.53L76.6955 54.3895C76.7906 54.4461 76.8622 54.5348 76.8974 54.6396C76.9325 54.7445 76.9289 54.8585 76.8871 54.9608C76.8454 55.0632 76.7682 55.1472 76.6698 55.1976C76.5713 55.2479 76.4581 55.2613 76.3506 55.2352C76.1504 55.1851 56.5121 50.2283 49.6971 54.3729C42.8821 58.5175 37.7416 66.4062 36.2952 75.0181C35.3383 80.7204 37.7583 85.6996 39.8668 87.1182L40.0281 87.2239C40.132 87.2882 40.2061 87.3911 40.2342 87.51C40.2624 87.6288 40.2423 87.754 40.1783 87.8581C40.1361 87.9246 40.0778 87.9794 40.0087 88.0173C39.9397 88.0553 39.8621 88.0751 39.7833 88.0751ZM22.2146 76.6759L37.2354 85.5772C35.4028 82.3273 34.7559 78.5419 35.4051 74.8679C36.896 65.9945 42.1978 57.8388 49.2409 53.5829C54.8041 50.2449 67.7832 52.4257 73.6524 53.6663L64.6066 48.3645C63.2213 48.0919 43.4384 44.2756 35.4774 46.9237C27.1325 49.7053 18.5595 57.9612 18.5595 67.007C18.5595 71.5522 19.9837 75.3519 22.1868 76.6426L22.2146 76.6759Z" fill="#B252B5"/>
<path d="M43.3605 88.9429C41.9673 88.9605 40.5945 88.6072 39.3828 87.9193L39.8446 87.1182C40.9152 87.7268 42.1291 88.038 43.3605 88.0194C45.5297 87.9428 47.6403 87.2962 49.4801 86.1446C57.1908 81.694 75.9056 54.7957 76.0947 54.5231L76.8569 55.0516C76.6678 55.3242 57.8306 82.3894 49.9419 86.9457C47.9612 88.1771 45.6915 88.8659 43.3605 88.9429Z" fill="#B252B5"/>
<path d="M76.4342 118.378C76.2999 118.377 76.1679 118.343 76.0503 118.278L1.25791 75.0904C1.14139 75.0245 1.04414 74.9292 0.975831 74.814C0.907517 74.6989 0.870511 74.5678 0.868481 74.434L0.5625 50.512H2.10352L2.40951 74.0223L75.6665 116.303V93.3935H77.2075V117.61C77.2074 117.746 77.1719 117.878 77.1046 117.995C77.0372 118.113 76.9404 118.21 76.8236 118.278C76.7043 118.343 76.5703 118.378 76.4342 118.378ZM76.4342 157.733C76.2991 157.732 76.1665 157.696 76.0503 157.627L29.319 130.645L30.0867 129.304L75.672 155.624L75.7277 119.914H77.2742L77.213 156.959C77.213 157.164 77.1316 157.361 76.9866 157.506C76.8415 157.651 76.6449 157.733 76.4398 157.733H76.4342ZM23.0826 127.029L4.10073 116.075C3.98431 116.005 3.88783 115.907 3.82059 115.789C3.75335 115.671 3.71763 115.537 3.71687 115.402V102.567H5.25789V114.957L23.8503 125.694L23.0826 127.029Z" fill="#502551"/>
<path d="M3.7168 76.3533H5.25782V96.6703H3.7168V76.3533ZM76.8236 157.61L76.0503 156.275L146.982 114.968V76.3533H148.523V115.407C148.523 115.543 148.488 115.676 148.421 115.793C148.353 115.91 148.256 116.007 148.139 116.075L76.8236 157.61Z" fill="#502551"/>
</g>
<defs>
<clipPath id="clip0_2443_57970">
<rect width="152" height="152" fill="white"/>
</clipPath>
</defs>
</svg>
