<svg width="18" height="16" viewBox="0 0 18 16" fill="none" xmlns="http://www.w3.org/2000/svg">
<path fill-rule="evenodd" clip-rule="evenodd" d="M6.9165 8.46157C9.21198 8.46157 11.052 6.59771 11.052 4.27253C11.052 1.94735 9.21198 0.0834961 6.9165 0.0834961C4.62103 0.0834961 2.78098 1.94735 2.78098 4.27253C2.78098 6.59771 4.62103 8.46157 6.9165 8.46157ZM6.9165 10.5128C3.54502 10.5128 0.666504 11.0519 0.666504 13.2055C0.666504 15.3583 3.52751 15.9168 6.9165 15.9168C10.2871 15.9168 13.1665 15.3778 13.1665 13.2241C13.1665 11.0705 10.3055 10.5128 6.9165 10.5128ZM15.5815 5.99005H16.584C16.9967 5.99005 17.3332 6.33125 17.3332 6.74973C17.3332 7.1682 16.9967 7.50941 16.584 7.50941H15.5815V8.49048C15.5815 8.90896 15.2458 9.25016 14.8323 9.25016C14.4196 9.25016 14.0832 8.90896 14.0832 8.49048V7.50941H13.0823C12.6688 7.50941 12.3332 7.1682 12.3332 6.74973C12.3332 6.33125 12.6688 5.99005 13.0823 5.99005H14.0832V5.00984C14.0832 4.59137 14.4196 4.25016 14.8323 4.25016C15.2458 4.25016 15.5815 4.59137 15.5815 5.00984V5.99005Z" fill="#CA7E32"/>
</svg>
