<svg width="40" height="40" viewBox="0 0 40 40" fill="none" xmlns="http://www.w3.org/2000/svg">
<g opacity="0.25">
<path d="M20.0002 3.33594C10.8168 3.33594 3.3335 10.8193 3.3335 20.0026C3.3335 29.1859 10.8168 36.6693 20.0002 36.6693C29.1835 36.6693 36.6668 29.1859 36.6668 20.0026C36.6668 10.8193 29.1835 3.33594 20.0002 3.33594ZM26.7668 18.7859L20.8835 24.6693C20.6335 24.9193 20.3168 25.0359 20.0002 25.0359C19.6835 25.0359 19.3668 24.9193 19.1168 24.6693L13.2335 18.7859C12.7502 18.3026 12.7502 17.5026 13.2335 17.0193C13.7168 16.5359 14.5168 16.5359 15.0002 17.0193L20.0002 22.0193L25.0002 17.0193C25.4835 16.5359 26.2835 16.5359 26.7668 17.0193C27.2502 17.5026 27.2502 18.2859 26.7668 18.7859Z" fill="#292D32"/>
</g>
</svg>
