<svg width="24" height="24" viewBox="0 0 24 24" fill="none" xmlns="http://www.w3.org/2000/svg">
<path d="M15.7853 9.12029H18.3997C19.105 9.12029 19.6775 9.69287 19.6775 10.3981V19.3622C19.6775 20.0683 19.105 20.64 18.3997 20.64H5.54341C4.83727 20.64 4.26562 20.0683 4.26562 19.3622V7.41845C4.26562 6.71324 4.83727 6.14066 5.54341 6.14066H10.025V4.63777C10.025 3.93256 10.5975 3.35999 11.3037 3.35999H14.5075C15.2127 3.35999 15.7853 3.93256 15.7853 4.63777V9.12029ZM15.7853 9.12029V20.64" stroke="black" stroke-width="1.44" stroke-linecap="round" stroke-linejoin="round"/>
<path d="M8.10352 16.8075L8.10546 16.8175" stroke="black" stroke-width="1.44" stroke-linecap="round" stroke-linejoin="round"/>
<path d="M8.10352 13.365L8.10546 13.375" stroke="black" stroke-width="1.44" stroke-linecap="round" stroke-linejoin="round"/>
<path d="M8.10352 9.8475L8.10546 9.8575" stroke="black" stroke-width="1.44" stroke-linecap="round" stroke-linejoin="round"/>
<path d="M11.9453 16.8075L11.9472 16.8175" stroke="black" stroke-width="1.44" stroke-linecap="round" stroke-linejoin="round"/>
<path d="M11.9453 13.365L11.9472 13.375" stroke="black" stroke-width="1.44" stroke-linecap="round" stroke-linejoin="round"/>
<path d="M11.9453 9.8475L11.9472 9.8575" stroke="black" stroke-width="1.44" stroke-linecap="round" stroke-linejoin="round"/>
</svg>
