<svg width="24" height="24" viewBox="0 0 24 24" fill="none" xmlns="http://www.w3.org/2000/svg">
<path d="M5.05685 8.07704L6.62771 8.61414L7.39106 8.99185C7.99311 9.28975 8.42625 9.84616 8.56734 10.5029V10.5029C8.71746 11.2017 8.51906 11.9299 8.03521 12.456L7.36265 13.1872C7.28235 13.2745 7.21272 13.3711 7.15523 13.4748L6.9965 13.7613C6.73696 14.2297 6.85072 14.8168 7.26642 15.1544V15.1544C7.32961 15.2057 7.39827 15.2499 7.47115 15.2861L8.23038 15.6635C8.55635 15.8255 8.83918 16.0626 9.05561 16.3553L9.14108 16.4709C9.62849 17.13 9.68269 18.0142 9.27944 18.7279V18.7279C9.05889 19.1183 8.97056 19.5695 9.02763 20.0142L9.0987 20.568" stroke="#212226" stroke-width="1.5" stroke-miterlimit="10" stroke-linecap="round" stroke-linejoin="round"/>
<path d="M14.1683 4.17808C12.3558 3.6539 10.4225 3.73027 8.65704 4.39579C6.89162 5.06131 5.38895 6.28023 4.3736 7.87041C3.35824 9.46059 2.88471 11.3366 3.02378 13.2182C3.16285 15.0998 3.90704 16.8858 5.14515 18.3094C6.38326 19.7331 8.0488 20.7178 9.89288 21.1166C11.0248 21.3613 12.1867 21.3772 13.312 21.1715" stroke="#212226" stroke-width="1.5" stroke-miterlimit="10" stroke-linecap="round" stroke-linejoin="round"/>
<path d="M16.7305 7.16667C17.1907 7.16667 17.5638 6.79357 17.5638 6.33333C17.5638 5.8731 17.1907 5.5 16.7305 5.5C16.2702 5.5 15.8971 5.8731 15.8971 6.33333C15.8971 6.79357 16.2702 7.16667 16.7305 7.16667Z" fill="#212226"/>
<path d="M20.0638 6.33333C20.0638 7.53654 18.9239 9.04239 17.9773 10.0855C17.4413 10.676 17.1734 10.9713 16.7305 10.9713C16.2876 10.9713 16.0196 10.676 15.4837 10.0855C14.5371 9.04239 13.3971 7.53654 13.3971 6.33333C13.3971 5.44928 13.7483 4.60143 14.3735 3.97631C14.9986 3.35119 15.8464 3 16.7305 3C17.6145 3 18.4624 3.35119 19.0875 3.97631C19.7126 4.60143 20.0638 5.44928 20.0638 6.33333Z" stroke="#212226" stroke-width="1.5" stroke-miterlimit="10" stroke-linecap="round" stroke-linejoin="round"/>
<path d="M20.8972 18H13.3972" stroke="#212226" stroke-width="1.5" stroke-miterlimit="10" stroke-linecap="round"/>
<path d="M20.8972 13.834H13.3972" stroke="#212226" stroke-width="1.5" stroke-miterlimit="10" stroke-linecap="round"/>
</svg>
