<svg width="48" height="48" viewBox="0 0 48 48" fill="none" xmlns="http://www.w3.org/2000/svg">
<path d="M32 25.8V34.2C32 41.2 29.2 44 22.2 44H13.8C6.8 44 4 41.2 4 34.2V25.8C4 18.8 6.8 16 13.8 16H22.2C29.2 16 32 18.8 32 25.8Z" fill="white"/>
<path d="M34.1995 4H25.7995C19.6334 4 16.7415 6.18818 16.139 11.478C16.013 12.5847 16.9295 13.5 18.0433 13.5H22.1995C30.5995 13.5 34.4995 17.4 34.4995 25.8V29.9562C34.4995 31.07 35.4148 31.9866 36.5215 31.8605C41.8114 31.258 43.9995 28.3662 43.9995 22.2V13.8C43.9995 6.8 41.1995 4 34.1995 4Z" fill="white"/>
</svg>
