<svg width="24" height="24" viewBox="0 0 24 24" fill="none" xmlns="http://www.w3.org/2000/svg">
<path d="M4.02374 16.4128V8.23643C4.02374 5.39167 5.60339 3.6286 8.50732 3.63748H16.2478C19.1518 3.63748 20.7403 5.40054 20.7403 8.2453V16.4128C20.7403 19.2497 19.1241 21.0206 16.1748 21.0206H8.50732C5.60339 21.0206 4.02374 19.2497 4.02374 16.4128Z" stroke="#212226" stroke-width="1.44" stroke-linecap="round" stroke-linejoin="round"/>
<path d="M9.33185 16.9888C9.33185 15.8313 10.246 14.3887 12.8787 14.3887C15.5124 14.3887 16.4265 15.8204 16.4265 16.979" stroke="#212226" stroke-width="1.44" stroke-linecap="round" stroke-linejoin="round"/>
<path fill-rule="evenodd" clip-rule="evenodd" d="M15.1444 9.93461C15.1444 11.1869 14.1297 12.2006 12.8784 12.2006C11.6271 12.2006 10.6125 11.1869 10.6125 9.93461C10.6125 8.68335 11.6271 7.6687 12.8784 7.6687C14.1297 7.6687 15.1444 8.68335 15.1444 9.93461Z" stroke="#212226" stroke-width="1.44" stroke-linecap="round" stroke-linejoin="round"/>
<path d="M2.49939 8.42627H5.67743M2.49939 16.2285H5.67743" stroke="#212226" stroke-width="1.44" stroke-linecap="round" stroke-linejoin="round"/>
</svg>
