<svg width="24" height="24" viewBox="0 0 24 24" fill="none" xmlns="http://www.w3.org/2000/svg">
<path d="M16.3206 5H6.78134C4.46097 5 3 6.63285 3 8.95322V15.2268C3 17.5472 4.46097 19.18 6.78134 19.18H16.4066C18.7269 19.18 20.1879 17.5472 20.1879 15.2268V8.95322C20.1879 6.63285 18.7269 5 16.3206 5Z" stroke="#212226" stroke-width="1.5" stroke-miterlimit="10" stroke-linecap="round" stroke-linejoin="round"/>
<path d="M3 9.29688H20.1879" stroke="#212226" stroke-width="1.5" stroke-miterlimit="10" stroke-linecap="round" stroke-linejoin="round"/>
<path d="M6.26564 15.3984H9.53134" stroke="#212226" stroke-width="1.5" stroke-miterlimit="10" stroke-linecap="round" stroke-linejoin="round"/>
<path d="M6.26566 12.7344H8.67196" stroke="#212226" stroke-width="1.5" stroke-miterlimit="10" stroke-linecap="round" stroke-linejoin="round"/>
<path d="M14.6878 15.5704H15.8909C16.4065 15.5704 16.8362 15.1407 16.8362 14.6251V13.4219C16.8362 12.9063 16.4065 12.4766 15.8909 12.4766H14.6878C14.1721 12.4766 13.7424 12.9063 13.7424 13.4219V14.6251C13.7424 15.1407 14.1721 15.5704 14.6878 15.5704Z" stroke="#212226" stroke-width="1.5" stroke-miterlimit="10" stroke-linecap="round" stroke-linejoin="round"/>
</svg>
