<svg width="24" height="24" viewBox="0 0 24 24" fill="none" xmlns="http://www.w3.org/2000/svg">
<path fill-rule="evenodd" clip-rule="evenodd" d="M13.9654 4.13867C14.7905 4.13867 15.5455 4.59402 15.9347 5.32083C16.1877 5.79467 16.465 6.27337 16.643 6.46894C16.9816 6.82407 17.4467 7.03424 17.9381 7.05175C19.6291 7.05175 21 8.42267 21 10.1137V10.1157V15.758C21 18.026 19.1611 19.8649 16.8941 19.8649H7.10595C4.83795 19.8649 3 18.026 3 15.758V10.1157C3.00195 8.42559 4.37189 7.05759 6.06195 7.05759C6.5533 7.03813 7.01741 6.82894 7.35697 6.47283C7.53892 6.2724 7.83178 5.77521 8.09935 5.29164C8.49243 4.5804 9.23968 4.13867 10.0531 4.13867H13.9654Z" stroke="#212226" stroke-width="1.5" stroke-linecap="round" stroke-linejoin="round"/>
<path fill-rule="evenodd" clip-rule="evenodd" d="M15.0944 13.1048C15.0944 11.3972 13.7098 10.0117 12.0013 10.0117C10.2927 10.0117 8.9082 11.3972 8.9082 13.1048C8.9082 14.8133 10.2927 16.1979 12.0013 16.1979C13.7098 16.1979 15.0944 14.8133 15.0944 13.1048Z" stroke="#212226" stroke-width="1.5" stroke-linecap="round" stroke-linejoin="round"/>
</svg>
