<svg width="40" height="40" viewBox="0 0 40 40" fill="none" xmlns="http://www.w3.org/2000/svg">
<g id="Group 13">
<g id="Group 17">
<path id="Ellipse 11 (Stroke)" fill-rule="evenodd" clip-rule="evenodd" d="M20 40C31.0457 40 40 31.0457 40 20C40 8.9543 31.0457 0 20 0C8.9543 0 0 8.9543 0 20C0 31.0457 8.9543 40 20 40Z" fill="#EF863B"/>
<circle id="Ellipse 12" cx="13" cy="16" r="2" fill="#6B3B19"/>
<circle id="Ellipse 13" cx="26" cy="16" r="2" fill="#6B3B19"/>
<path id="Line 3 (Stroke)" fill-rule="evenodd" clip-rule="evenodd" d="M25.6664 28.5827C21.6636 27.2485 17.3362 27.2485 13.3335 28.5827L12.158 28.9745L11.8418 28.0258L13.0172 27.634C17.2252 26.2314 21.7746 26.2314 25.9826 27.634L27.158 28.0258L26.8418 28.9745L25.6664 28.5827Z" fill="#6B3B19"/>
</g>
</g>
</svg>
