<svg width="40" height="40" viewBox="0 0 40 40" fill="none" xmlns="http://www.w3.org/2000/svg">
<path fill-rule="evenodd" clip-rule="evenodd" d="M20 39C30.4934 39 39 30.4934 39 20C39 9.50659 30.4934 1 20 1C9.50659 1 1 9.50659 1 20C1 30.4934 9.50659 39 20 39ZM20 40C31.0457 40 40 31.0457 40 20C40 8.9543 31.0457 0 20 0C8.9543 0 0 8.9543 0 20C0 31.0457 8.9543 40 20 40Z" fill="#F7D252"/>
<circle cx="13.5" cy="16" r="2" fill="#F7D252"/>
<circle cx="26.5" cy="16" r="2" fill="#F7D252"/>
<rect x="12.5" y="28" width="15" height="1" fill="#F7D252"/>
</svg>
