<svg width="24" height="24" viewBox="0 0 24 24" fill="none" xmlns="http://www.w3.org/2000/svg">
<path d="M14.4845 3.36V6.09482" stroke="#161F67" stroke-width="1.44" stroke-linecap="round" stroke-linejoin="round"/>
<path d="M7.77107 3.36V6.09482" stroke="#161F67" stroke-width="1.44" stroke-linecap="round" stroke-linejoin="round"/>
<path d="M18.6015 10.9249V8.53095C18.609 6.03151 17.0921 4.6725 14.645 4.6725H7.609C5.16839 4.6725 3.645 6.03151 3.645 8.53095V16.0499C3.645 18.5885 5.16839 19.9792 7.609 19.9792H9.38363" stroke="#161F67" stroke-width="1.44" stroke-linecap="round" stroke-linejoin="round"/>
<path fill-rule="evenodd" clip-rule="evenodd" d="M19.5564 16.892C19.5564 18.9618 17.878 20.6402 15.8082 20.6402C13.7385 20.6402 12.06 18.9618 12.06 16.892C12.06 14.8222 13.7385 13.1437 15.8082 13.1437C17.878 13.1437 19.5564 14.8222 19.5564 16.892Z" stroke="#161F67" stroke-width="1.44" stroke-linecap="round" stroke-linejoin="round"/>
<path d="M16.9728 17.8651L15.7875 17.1571V15.6338" stroke="#161F67" stroke-width="1.44" stroke-linecap="round" stroke-linejoin="round"/>
<path d="M15.0458 9.72951H7.20187" stroke="#161F67" stroke-width="1.44" stroke-linecap="round" stroke-linejoin="round"/>
</svg>
