<svg width="40" height="40" viewBox="0 0 40 40" fill="none" xmlns="http://www.w3.org/2000/svg">
<path fill-rule="evenodd" clip-rule="evenodd" d="M20 39C30.4934 39 39 30.4934 39 20C39 9.50659 30.4934 1 20 1C9.50659 1 1 9.50659 1 20C1 30.4934 9.50659 39 20 39ZM20 40C31.0457 40 40 31.0457 40 20C40 8.9543 31.0457 0 20 0C8.9543 0 0 8.9543 0 20C0 31.0457 8.9543 40 20 40Z" fill="#D74552"/>
<circle cx="13" cy="16" r="2" fill="#D74552"/>
<circle cx="26" cy="16" r="2" fill="#D74552"/>
<path fill-rule="evenodd" clip-rule="evenodd" d="M26.5527 30.2241C23.6468 24.4123 15.3531 24.4123 12.4472 30.2241L11.5527 29.7769C14.8272 23.228 24.1727 23.228 27.4472 29.7769L26.5527 30.2241Z" fill="#D74552"/>
</svg>
