<svg width="40" height="40" viewBox="0 0 40 40" fill="none" xmlns="http://www.w3.org/2000/svg">
<g id="Group 15">
<path id="Ellipse 11 (Stroke)" fill-rule="evenodd" clip-rule="evenodd" d="M20 40C31.0457 40 40 31.0457 40 20C40 8.9543 31.0457 0 20 0C8.9543 0 0 8.9543 0 20C0 31.0457 8.9543 40 20 40Z" fill="#B6DA49"/>
<circle id="Ellipse 12" cx="13" cy="16" r="2" fill="#526811"/>
<circle id="Ellipse 13" cx="26" cy="16" r="2" fill="#526811"/>
<path id="Line 3 (Stroke)" fill-rule="evenodd" clip-rule="evenodd" d="M13.3334 26.9739C17.3361 28.3082 21.6636 28.3082 25.6663 26.9739L26.8417 26.5821L27.158 27.5308L25.9825 27.9226C21.7745 29.3253 17.2251 29.3253 13.0172 27.9226L11.8417 27.5308L12.158 26.5821L13.3334 26.9739Z" fill="#526811"/>
</g>
</svg>
