<svg width="24" height="24" viewBox="0 0 24 24" fill="none" xmlns="http://www.w3.org/2000/svg">
<path fill-rule="evenodd" clip-rule="evenodd" d="M12.0008 16.5586C9.9666 16.5586 8.31156 14.9035 8.31156 12.8693C8.31156 10.835 9.9666 9.18 12.0008 9.18C14.0351 9.18 15.6901 10.835 15.6901 12.8693C15.6901 14.9035 14.0351 16.5586 12.0008 16.5586ZM17.7186 6.57744C17.3701 6.564 17.0456 6.41808 16.8124 6.17424C16.7701 6.1272 16.5992 5.91504 16.2008 5.16816C15.742 4.31184 14.8559 3.78 13.8863 3.78H10.1308C9.17652 3.78 8.2962 4.2984 7.8354 5.13456C7.41588 5.89392 7.24116 6.1176 7.19508 6.16944C6.95412 6.42096 6.62964 6.56784 6.2994 6.58224C4.41588 6.58224 2.8818 8.1144 2.87988 9.99792V15.4142C2.87988 17.8526 4.86324 19.837 7.30164 19.837H16.6981C19.1365 19.837 21.1199 17.8526 21.1199 15.4142V9.996C21.1199 8.11056 19.5858 6.57744 17.7186 6.57744Z" fill="white"/>
<path fill-rule="evenodd" clip-rule="evenodd" d="M12.0013 10.62C10.761 10.62 9.75195 11.629 9.75195 12.8693C9.75195 14.1096 10.761 15.1186 12.0013 15.1186C13.2416 15.1186 14.2506 14.1096 14.2506 12.8693C14.2506 11.629 13.2416 10.62 12.0013 10.62Z" fill="white"/>
</svg>
