<svg width="41" height="40" viewBox="0 0 41 40" fill="none" xmlns="http://www.w3.org/2000/svg">
<g id="Group 19">
<path id="Ellipse 11 (Stroke)" fill-rule="evenodd" clip-rule="evenodd" d="M20.5 39C30.9934 39 39.5 30.4934 39.5 20C39.5 9.50659 30.9934 1 20.5 1C10.0066 1 1.5 9.50659 1.5 20C1.5 30.4934 10.0066 39 20.5 39ZM20.5 40C31.5457 40 40.5 31.0457 40.5 20C40.5 8.9543 31.5457 0 20.5 0C9.4543 0 0.5 8.9543 0.5 20C0.5 31.0457 9.4543 40 20.5 40Z" fill="#73CB67"/>
<circle id="Ellipse 12" cx="14" cy="16" r="2" fill="#73CB67"/>
<circle id="Ellipse 13" cx="27" cy="16" r="2" fill="#73CB67"/>
<path id="Line 2 (Stroke)" fill-rule="evenodd" clip-rule="evenodd" d="M13.4473 24.8648C16.3532 30.6766 24.6469 30.6766 27.5528 24.8648L28.4473 25.312C25.1728 31.8608 15.8273 31.8608 12.5528 25.312L13.4473 24.8648Z" fill="#73CB67"/>
</g>
</svg>
