<svg width="14" height="16" viewBox="0 0 14 16" fill="none" xmlns="http://www.w3.org/2000/svg">
<path fill-rule="evenodd" clip-rule="evenodd" d="M10.3016 4.20922L8.82227 6.32122C8.68211 6.52186 8.45939 6.62842 8.23187 6.62842C8.08883 6.62842 7.94483 6.58618 7.82003 6.49786C7.49363 6.26938 7.41491 5.82106 7.64243 5.49562L9.12179 3.38362C9.35027 3.05722 9.80051 2.9785 10.125 3.20698C10.4504 3.4345 10.5301 3.88378 10.3016 4.20922ZM11.7954 0.939461C10.2651 -0.131899 8.15699 0.241541 7.08851 1.77274L1.46484 9.83098C0.989638 10.5318 0.745797 11.3622 0.765957 12.2089C0.790917 13.2121 0.975237 15.0995 1.58676 15.5151C2.19828 15.9308 3.98004 15.5007 4.89588 15.2185C5.77523 14.9468 6.53651 14.3852 7.05395 13.6239L12.6277 5.63866C13.6933 4.11034 13.3208 2.00794 11.7954 0.939461Z" fill="white"/>
</svg>
