<svg width="16" height="16" viewBox="0 0 16 16" fill="none" xmlns="http://www.w3.org/2000/svg">
<path d="M6.88602 11.0622H2.68555" stroke="#212226" stroke-linecap="round" stroke-linejoin="round"/>
<path d="M8.75977 4.60028H12.9602" stroke="#212226" stroke-linecap="round" stroke-linejoin="round"/>
<path fill-rule="evenodd" clip-rule="evenodd" d="M5.81687 4.56417C5.81687 3.7004 5.11143 3 4.24144 3C3.37146 3 2.66602 3.7004 2.66602 4.56417C2.66602 5.42794 3.37146 6.12834 4.24144 6.12834C5.11143 6.12834 5.81687 5.42794 5.81687 4.56417Z" stroke="#212226" stroke-linecap="round" stroke-linejoin="round"/>
<path fill-rule="evenodd" clip-rule="evenodd" d="M13.3325 11.0358C13.3325 10.1721 12.6276 9.47168 11.7576 9.47168C10.8871 9.47168 10.1816 10.1721 10.1816 11.0358C10.1816 11.8996 10.8871 12.6 11.7576 12.6C12.6276 12.6 13.3325 11.8996 13.3325 11.0358Z" stroke="#212226" stroke-linecap="round" stroke-linejoin="round"/>
</svg>
