<svg width="24" height="24" viewBox="0 0 24 24" fill="none" xmlns="http://www.w3.org/2000/svg">
<path fill-rule="evenodd" clip-rule="evenodd" d="M21.21 7.89921V16.0502C21.21 19.0702 19.32 21.2002 16.3 21.2002H7.65C4.63 21.2002 2.75 19.0702 2.75 16.0502V7.89921C2.75 4.87921 4.64 2.75021 7.65 2.75021H16.3C19.32 2.75021 21.21 4.87921 21.21 7.89921Z" stroke="#212226" stroke-width="1.5" stroke-linecap="round" stroke-linejoin="round"/>
<path d="M5.28125 16.4309L6.80925 14.8179C7.34025 14.2549 8.22525 14.2279 8.78925 14.7579C8.80625 14.7749 9.72625 15.7099 9.72625 15.7099C10.2812 16.2749 11.1882 16.2839 11.7532 15.7299C11.7902 15.6939 14.0872 12.9079 14.0872 12.9079C14.6792 12.1889 15.7422 12.0859 16.4622 12.6789C16.5102 12.7189 18.6803 14.9459 18.6803 14.9459" stroke="#212226" stroke-width="1.5" stroke-linecap="round" stroke-linejoin="round"/>
<path fill-rule="evenodd" clip-rule="evenodd" d="M10.3127 9.13312C10.3127 10.1021 9.52769 10.8871 8.55869 10.8871C7.58969 10.8871 6.80469 10.1021 6.80469 9.13312C6.80469 8.16412 7.58969 7.37912 8.55869 7.37912C9.52769 7.38012 10.3127 8.16412 10.3127 9.13312Z" stroke="#212226" stroke-width="1.5" stroke-linecap="round" stroke-linejoin="round"/>
</svg>
