<svg width="24" height="24" viewBox="0 0 24 24" fill="none" xmlns="http://www.w3.org/2000/svg">
<path d="M5.55947 12.3226C4.35914 12.9628 3.71897 14.4031 4.11908 15.9235C4.43917 17.0438 5.39942 17.9241 6.51972 18.1641C6.67977 18.1641 6.83981 18.2442 6.99985 18.2442C7.80007 18.2442 8.44024 17.444 8.28019 16.6437L7.47998 13.1228C7.23992 12.2426 6.27966 11.8425 5.55947 12.3226Z" stroke="#212226" stroke-width="1.5" stroke-linecap="round" stroke-linejoin="round"/>
<path d="M18.4429 12.3226C19.6432 12.9628 20.2834 14.4031 19.8833 15.9235C19.5632 17.0438 18.603 17.9241 17.4827 18.1641C17.3226 18.1641 17.1626 18.2442 17.0025 18.2442C16.2023 18.2442 15.5622 17.444 15.7222 16.6437L16.5224 13.1228C16.7625 12.2426 17.7227 11.8425 18.4429 12.3226Z" stroke="#212226" stroke-width="1.5" stroke-linecap="round" stroke-linejoin="round"/>
<path d="M18.763 12.5623V10.8018C18.763 7.04081 15.7222 4 11.9612 4C8.20016 4 5.15935 7.04081 5.15935 10.8018V12.4823" stroke="#212226" stroke-width="1.5" stroke-linecap="round" stroke-linejoin="round"/>
<path d="M11.5611 20.6448C13.7216 20.6448 15.242 21.1249 16.7624 18.2441" stroke="#212226" stroke-width="1.5" stroke-miterlimit="10" stroke-linecap="round" stroke-linejoin="round"/>
</svg>
