<svg width="28" height="30" viewBox="0 0 28 30" fill="none" xmlns="http://www.w3.org/2000/svg">
<g opacity="0.6">
<path d="M2.17563 11.6364L2.16113 26.0704L13.9135 29L25.5837 26.072L25.5982 11.638L13.8458 8.70839L2.17563 11.6364Z" fill="white"/>
<path d="M18.6001 13.3951L20.9499 12.8089L20.9644 27.2428L18.6146 27.8275L18.6001 13.3951Z" fill="#6243A4"/>
<path d="M2.17529 11.6364L13.9293 14.5677L25.5979 11.638L13.8455 8.70839L2.17529 11.6364Z" fill="#F5B1B0"/>
<path d="M13.928 15.0863L13.9151 27.7309C13.9151 28.3767 13.3079 28.8502 12.6814 28.694L2.16113 26.0704L2.17563 11.638L13.4271 14.4437C13.7218 14.5161 13.928 14.7819 13.928 15.0863Z" fill="#E9E4F4"/>
<path d="M9.22824 13.3951L6.8768 12.8089L6.8623 27.2428L9.21374 27.8275L9.22824 13.3951Z" fill="#6243A4"/>
<path fill-rule="evenodd" clip-rule="evenodd" d="M2.17563 11.6364L2.16113 26.0704L13.9135 29L25.5837 26.072L25.5982 11.638L13.8458 8.70839L2.17563 11.6364Z" stroke="#573B92" stroke-width="0.805287" stroke-linecap="round" stroke-linejoin="round"/>
<path d="M1.00322 8.13665L1 13.0006L13.9297 16.2233L26.766 13.0022L26.7692 8.13826L13.8411 4.9155L1.00322 8.13665Z" fill="white"/>
<path d="M13.9297 16.2233L13.9329 12.3805C13.9329 11.9247 13.6221 11.5253 13.1792 11.4158L1.00322 8.38144L1 13.0006L13.9297 16.2233Z" fill="#E9E4F4"/>
<path d="M13.7106 7.59389L7.04442 9.26727C6.60312 9.3784 6.29228 9.77461 6.29228 10.2304L6.28906 14.3196L8.63889 14.9059L8.64211 10.8166C8.64211 10.3609 8.95295 9.96465 9.39425 9.85352L15.2616 8.38146L13.7106 7.59389Z" fill="#6D4AB6"/>
<path d="M14.0988 7.59389L20.7731 9.26888C21.2144 9.38001 21.5252 9.77622 21.5252 10.232L21.5284 14.3213L19.1786 14.9075L19.1754 10.8183C19.1754 10.3625 18.8645 9.96626 18.4232 9.85513L12.5479 8.38146L14.0988 7.59389Z" fill="#6D4AB6"/>
<path fill-rule="evenodd" clip-rule="evenodd" d="M1.00322 8.13665L1 13.0006L13.9297 16.2233L26.766 13.0022L26.7692 8.13826L13.8411 4.9155L1.00322 8.13665Z" stroke="#573B92" stroke-width="0.805287" stroke-linecap="round" stroke-linejoin="round"/>
<path d="M22.4106 4.64168C22.4106 5.85444 20.5246 8.03033 15.6059 8.28158L14.5107 7.79358L20.3459 2.53183L21.4733 3.20505L22.037 3.68017L22.2946 4.11663L22.4106 4.64168Z" fill="#D2C7E8"/>
<path d="M5.36426 4.64168C5.36426 5.85444 7.25024 8.03033 12.1689 8.28158L13.2641 7.79358L7.4274 2.53183L6.3 3.20505L5.7363 3.68017L5.47861 4.11663L5.36426 4.64168Z" fill="#6D4AB6"/>
<path d="M14.3835 6.80468C14.3835 3.98295 11.5311 0 10.2137 0C8.89625 0 5.36426 3.16478 5.36426 4.64167C5.36426 4.64167 5.52854 3.40153 6.65594 3.40153C7.78334 3.40153 10.692 5.43891 12.3719 8.10924" fill="#D2C7E8"/>
<path d="M13.933 9.82451C15.2139 9.82451 16.2522 8.9347 16.2522 7.83706C16.2522 6.73942 15.2139 5.84961 13.933 5.84961C12.6521 5.84961 11.6138 6.73942 11.6138 7.83706C11.6138 8.9347 12.6521 9.82451 13.933 9.82451Z" fill="#6D4AB6"/>
<path d="M13.3901 6.80468C13.3901 3.98295 16.2425 0 17.5599 0C18.8774 0 22.411 3.16478 22.411 4.64167C22.411 4.64167 22.2467 3.40153 21.1193 3.40153C19.9919 3.40153 17.0832 5.43891 15.4034 8.10924" fill="#6D4AB6"/>
</g>
</svg>
