<svg width="12" height="12" viewBox="0 0 12 12" fill="none" xmlns="http://www.w3.org/2000/svg">
<path fill-rule="evenodd" clip-rule="evenodd" d="M7.08687 8.93513C6.98175 9.19865 6.73023 9.36905 6.44559 9.36905H5.22495C4.94031 9.36905 4.68831 9.19865 4.58367 8.93465C4.47903 8.67161 4.54527 8.37593 4.75119 8.18201C4.84431 8.07017 4.97247 7.94873 5.09967 7.82873C5.31279 7.62761 5.51439 7.43801 5.58975 7.23209L5.64735 7.07465L6.00303 7.05833L6.08031 7.23209C6.15615 7.43753 6.35775 7.62761 6.57135 7.82921C6.69855 7.94873 6.82671 8.07017 6.93759 8.20073C7.12623 8.37641 7.19151 8.67209 7.08687 8.93513ZM6.95583 6.33209C6.72447 6.09305 6.72399 5.90633 6.94863 5.67353C7.93311 4.72937 8.58303 4.10537 8.65263 3.38345C8.69487 2.84777 8.54895 2.35817 8.24127 2.00489C7.94559 1.66505 7.52079 1.46969 6.99951 1.43945L4.65711 1.43993C4.15023 1.46969 3.72591 1.66505 3.43023 2.00489C3.12255 2.35817 2.97663 2.84777 3.01935 3.38729C3.08847 4.10633 3.73839 4.72985 4.71663 5.66729C4.94751 5.90633 4.94751 6.09305 4.72287 6.32537C3.73839 7.26953 3.08847 7.89353 3.01935 8.61209C3.01935 8.61353 3.01935 8.61449 3.01887 8.61593C2.97663 9.15161 3.12255 9.64121 3.43023 9.99449C3.72591 10.3343 4.15023 10.5292 4.67151 10.5595L7.01343 10.559C7.52127 10.5292 7.94559 10.3343 8.24127 9.99449C8.54895 9.64121 8.69487 9.15161 8.65215 8.61209C8.58303 7.89449 7.93311 7.27049 6.95583 6.33209Z" fill="white"/>
</svg>
