<svg width="24" height="24" viewBox="0 0 24 24" fill="none" xmlns="http://www.w3.org/2000/svg">
<path d="M12 21C16.9709 21 21 16.9709 21 12C21 7.02908 16.9709 3 12 3C7.02908 3 3 7.02908 3 12C3 16.9709 7.02908 21 12 21Z" stroke="#212226" stroke-width="1.5" stroke-linecap="round" stroke-linejoin="round"/>
<path d="M11.9709 15.8404H11.9069M11.9571 16.0997C11.8131 16.0997 11.6963 15.9828 11.6963 15.8388C11.6963 15.6948 11.8131 15.5781 11.9571 15.5781C12.1011 15.5781 12.2179 15.6948 12.2179 15.8388C12.2179 15.9828 12.1011 16.0997 11.9571 16.0997Z" stroke="#212226" stroke-width="1.5" stroke-linecap="round" stroke-linejoin="round"/>
<path d="M11.9709 11.9381H11.9069M11.9571 12.1973C11.8131 12.1973 11.6963 12.0805 11.6963 11.9365C11.6963 11.7925 11.8131 11.6758 11.9571 11.6758C12.1011 11.6758 12.2179 11.7925 12.2179 11.9365C12.2179 12.0805 12.1011 12.1973 11.9571 12.1973Z" stroke="#212226" stroke-width="1.5" stroke-linecap="round" stroke-linejoin="round"/>
<path d="M11.9709 8.03964H11.9069M11.9571 8.2989C11.8131 8.2989 11.6963 8.18206 11.6963 8.03804C11.6963 7.89403 11.8131 7.77734 11.9571 7.77734C12.1011 7.77734 12.2179 7.89403 12.2179 8.03804C12.2179 8.18206 12.1011 8.2989 11.9571 8.2989Z" stroke="#212226" stroke-width="1.5" stroke-linecap="round" stroke-linejoin="round"/>
</svg>
