<svg width="24" height="24" viewBox="0 0 24 24" fill="none" xmlns="http://www.w3.org/2000/svg">
<path d="M16.584 3H7.91479C4.8938 3 3 5.13802 3 8.16602V16.334C3 19.361 4.88479 21.5 7.91479 21.5H16.583C19.614 21.5 21.5 19.361 21.5 16.334V8.16602C21.5 5.13802 19.614 3 16.584 3Z" stroke="#212226" stroke-width="1.5" stroke-linecap="round" stroke-linejoin="round"/>
<path d="M7.20679 8.79883H14.3488" stroke="#212226" stroke-width="1.5" stroke-linecap="round" stroke-linejoin="round"/>
<path d="M10.593 7.91016V8.79916" stroke="#212226" stroke-width="1.5" stroke-linecap="round" stroke-linejoin="round"/>
<path d="M14.1638 15.6036C12.2808 15.7316 9.62803 13.3946 9.15503 11.3926" stroke="#212226" stroke-width="1.5" stroke-linecap="round" stroke-linejoin="round"/>
<path d="M12.676 8.79883C12.5556 10.2226 11.9934 11.5732 11.0681 12.662C10.1428 13.7508 8.90059 14.5233 7.51489 14.8718" stroke="#212226" stroke-width="1.5" stroke-linecap="round" stroke-linejoin="round"/>
<path d="M12.2568 16.5892L14.7749 11.6582L17.293 16.5892" stroke="#212226" stroke-width="1.5" stroke-linecap="round" stroke-linejoin="round"/>
</svg>
