<svg width="24" height="24" viewBox="0 0 24 24" fill="none" xmlns="http://www.w3.org/2000/svg">
<path d="M23.2236 10.7888C22.8399 10.2008 22.3131 9.68555 21.6561 9.26934C21.5716 9.21649 21.4805 9.16364 21.3895 9.11079C21.7342 8.48318 21.9749 7.85557 22.0984 7.24117C22.248 6.50786 22.235 5.78776 22.0594 5.1073C21.8838 4.42684 21.5456 3.7728 21.0513 3.15841C20.5635 2.55062 19.9065 1.98907 19.1065 1.47377C18.3586 0.998109 17.6171 0.687607 16.8951 0.555479C16.1667 0.416744 15.4577 0.44317 14.7813 0.634756C14.1114 0.826342 13.4674 1.17648 12.8756 1.67857C12.7975 1.74463 12.7195 1.8173 12.6414 1.88997C12.1601 1.36146 11.6528 0.932045 11.1129 0.62815C10.4755 0.25819 9.79911 0.0467849 9.10968 0.00714639C8.42024 -0.0324921 7.69828 0.0930298 6.97632 0.377106C6.26087 0.661182 5.5259 1.11702 4.79743 1.73803C4.121 2.31279 3.60067 2.93379 3.24945 3.58782C2.89823 4.24847 2.7031 4.94214 2.67058 5.64903C2.63806 6.35591 2.77465 7.08262 3.06083 7.80932C3.09986 7.90842 3.13888 8.00091 3.18441 8.10001C2.5405 8.39729 1.98114 8.76065 1.52586 9.18346C0.979508 9.68555 0.576252 10.2801 0.322591 10.9342C0.0689297 11.5882 -0.0351365 12.3215 0.0103925 13.1143C0.0559214 13.8938 0.25755 14.7461 0.608773 15.6379C0.940484 16.4703 1.36325 17.164 1.86407 17.7057C2.37139 18.2475 2.96327 18.6505 3.62019 18.9015C4.2706 19.1525 4.99256 19.245 5.76655 19.1922C5.87062 19.1856 5.97468 19.1724 6.07875 19.1591C6.1633 19.8726 6.32591 20.5267 6.58607 21.0948C6.89177 21.7753 7.31453 22.35 7.85438 22.7993C8.38772 23.2419 9.04463 23.5722 9.79911 23.777C10.5471 23.9752 11.3991 24.0413 12.3487 23.9752C13.2268 23.9158 14.0073 23.7242 14.6707 23.4005C15.3406 23.0767 15.8935 22.6341 16.3293 22.0726C16.765 21.5176 17.0772 20.8504 17.2659 20.0907C17.2919 19.9916 17.3049 19.8859 17.3244 19.7802C18.0203 19.9255 18.6838 19.9585 19.3017 19.8925C20.0366 19.8066 20.7 19.5754 21.2854 19.1922C21.8708 18.8156 22.3781 18.2805 22.8009 17.6199C23.2171 16.9592 23.5489 16.1532 23.7765 15.2217C23.9911 14.3563 24.0497 13.5371 23.9586 12.8038C23.861 12.0572 23.6139 11.3834 23.2301 10.7888H23.2236ZM14.6577 1.83052C15.165 1.67857 15.6788 1.63893 16.1992 1.71821C16.713 1.79088 17.2138 1.98246 17.6821 2.27975C18.2025 2.61007 18.6252 2.99325 18.9439 3.41606C19.2561 3.83226 19.4643 4.30132 19.5618 4.7968C19.6529 5.29889 19.6334 5.84722 19.4903 6.43519C19.3602 6.97692 19.113 7.55828 18.7553 8.15946L18.6838 8.13964C17.9163 7.94145 17.2333 7.50543 16.726 6.88443L13.2268 2.59026C13.6821 2.2269 14.1634 1.96925 14.6512 1.82391L14.6577 1.83052ZM6.01371 18.2475C5.43484 18.2673 4.9015 18.188 4.4267 18.0162C3.93238 17.8379 3.4901 17.5604 3.11286 17.1904C2.73562 16.8205 2.44294 16.3712 2.23481 15.8493C2.00716 15.2746 1.88358 14.713 1.87057 14.1713C1.85757 13.6428 1.96163 13.1407 2.17627 12.6849C2.39091 12.2224 2.72912 11.793 3.17791 11.4032C3.60067 11.0399 4.13401 10.7228 4.77142 10.4453L4.78443 10.4585C5.28524 11.0663 5.58443 11.826 5.63647 12.6188L6.01371 18.2475ZM4.02995 7.75647C3.83482 7.20153 3.73726 6.65981 3.75027 6.14451C3.76328 5.60939 3.88686 5.09409 4.121 4.61842C4.34865 4.14276 4.68036 3.71995 5.10963 3.3566C5.57793 2.96021 6.06574 2.66953 6.56656 2.49116C7.05437 2.31939 7.55519 2.25993 8.0495 2.326C8.55032 2.39206 9.05764 2.58365 9.55846 2.90076C10.0268 3.19805 10.4951 3.61425 10.9503 4.14276L10.9048 4.22204C10.482 4.9025 9.85765 5.43101 9.12268 5.7283L4.03645 7.76308L4.02995 7.75647ZM15.7504 21.0354C15.4317 21.4582 15.0349 21.8017 14.5731 22.0461C14.1114 22.2972 13.5975 22.4359 13.0447 22.4756C12.4333 22.5152 11.8674 22.4624 11.3666 22.3104C10.8723 22.1585 10.43 21.9074 10.0658 21.5573C9.70155 21.2071 9.40236 20.7513 9.17472 20.1897C8.96658 19.6744 8.83 19.0534 8.77146 18.3532L8.80398 18.34C9.53244 18.0427 10.339 17.9898 11.0999 18.1814L16.4593 19.5621C16.2967 20.1237 16.0626 20.6192 15.7504 21.0288V21.0354ZM16.6024 16.7412L8.70642 17.5075L5.55191 10.1216L11.4967 4.79019L18.326 8.87956L16.6024 16.7412ZM22.5927 14.0854C22.4431 14.6866 22.2155 15.2151 21.9163 15.6577C21.6236 16.0938 21.2464 16.4373 20.8106 16.6817C20.3683 16.9262 19.848 17.0781 19.2561 17.1178C18.7098 17.1574 18.0854 17.0979 17.4155 16.9394C17.3634 16.1466 17.5585 15.3605 17.9748 14.6866L20.9277 9.89034C21.4025 10.2207 21.7927 10.5972 22.0789 11.0266C22.3781 11.4693 22.5732 11.9582 22.6643 12.4801C22.7553 13.002 22.7293 13.5437 22.5927 14.092V14.0854Z" fill="black"/>
</svg>
