<svg width="25" height="25" viewBox="0 0 25 25" fill="none" xmlns="http://www.w3.org/2000/svg">
<path fill-rule="evenodd" clip-rule="evenodd" d="M16.5202 15.0857C16.1074 15.0857 15.7714 14.7593 15.7714 14.3465C15.7714 13.9337 16.1074 13.5977 16.5202 13.5977C16.933 13.5977 17.269 13.9337 17.269 14.3465C17.269 14.7593 16.933 15.0857 16.5202 15.0857ZM16.5202 18.4649C16.1074 18.4649 15.7714 18.1289 15.7714 17.7161C15.7714 17.3033 16.1074 16.9769 16.5202 16.9769C16.933 16.9769 17.269 17.3033 17.269 17.7161C17.269 18.1289 16.933 18.4649 16.5202 18.4649ZM12.6706 15.0857C12.2578 15.0857 11.9218 14.7593 11.9218 14.3465C11.9218 13.9337 12.2578 13.5977 12.6706 13.5977C13.0834 13.5977 13.4098 13.9337 13.4098 14.3465C13.4098 14.7593 13.0834 15.0857 12.6706 15.0857ZM12.6706 18.4649C12.2578 18.4649 11.9218 18.1289 11.9218 17.7161C11.9218 17.3033 12.2578 16.9769 12.6706 16.9769C13.0834 16.9769 13.4098 17.3033 13.4098 17.7161C13.4098 18.1289 13.0834 18.4649 12.6706 18.4649ZM8.7922 15.0857C8.3794 15.0857 8.0434 14.7593 8.0434 14.3465C8.0434 13.9337 8.3794 13.5977 8.7922 13.5977C9.205 13.5977 9.53141 13.9337 9.53141 14.3465C9.53141 14.7593 9.205 15.0857 8.7922 15.0857ZM8.7922 18.4649C8.3794 18.4649 8.0434 18.1289 8.0434 17.7161C8.0434 17.3033 8.3794 16.9769 8.7922 16.9769C9.205 16.9769 9.53141 17.3033 9.53141 17.7161C9.53141 18.1289 9.205 18.4649 8.7922 18.4649ZM4.59701 11.5625C4.49097 11.5625 4.405 11.6485 4.405 11.7545V17.1689C4.405 20.0297 6.1234 21.7385 9.0034 21.7385H16.3186C19.1986 21.7385 20.917 20.0585 20.917 17.2361V11.7545C20.917 11.6485 20.8311 11.5625 20.725 11.5625H4.59701Z" fill="#212226"/>
<path fill-rule="evenodd" clip-rule="evenodd" d="M19.732 6.09372C19.0312 5.40252 18.0424 5.00892 16.8712 4.90332V3.98172C16.8712 3.58812 16.5448 3.26172 16.1512 3.26172C15.748 3.26172 15.4312 3.58812 15.4312 3.98172V7.38972C15.364 7.40892 15.3064 7.42812 15.2392 7.42812C14.836 7.42812 14.5192 7.10172 14.5192 6.70812V5.05692C14.5192 4.95088 14.4332 4.86492 14.3272 4.86492H9.88236V3.98172C9.88236 3.58812 9.56559 3.26172 9.16239 3.26172C8.76879 3.26172 8.44239 3.58812 8.44239 3.98172V7.38972C8.38479 7.40892 8.31759 7.42812 8.25039 7.42812C7.85679 7.42812 7.53039 7.10172 7.53039 6.70812V5.30225C7.53039 5.17751 7.41291 5.08584 7.29344 5.12166C5.46108 5.67106 4.40079 7.15653 4.40079 9.35772V9.93372C4.40079 10.0398 4.48675 10.1257 4.59279 10.1257H20.7208C20.8268 10.1257 20.9128 10.0398 20.9128 9.93372V9.35772C20.9128 8.00412 20.5096 6.87132 19.732 6.09372Z" fill="#212226"/>
</svg>
