<svg width="14" height="14" viewBox="0 0 14 14" fill="none" xmlns="http://www.w3.org/2000/svg">
<path d="M4.27992 7.97984C5.21992 7.97984 5.97325 8.74051 5.97325 9.68717V11.9598C5.97325 12.8998 5.21992 13.6665 4.27992 13.6665H2.02659C1.09325 13.6665 0.333252 12.8998 0.333252 11.9598V9.68717C0.333252 8.74051 1.09325 7.97984 2.02659 7.97984H4.27992ZM11.9733 7.97984C12.9067 7.97984 13.6667 8.74051 13.6667 9.68717V11.9598C13.6667 12.8998 12.9067 13.6665 11.9733 13.6665H9.71999C8.77999 13.6665 8.02665 12.8998 8.02665 11.9598V9.68717C8.02665 8.74051 8.77999 7.97984 9.71999 7.97984H11.9733ZM4.27992 0.333374C5.21992 0.333374 5.97325 1.10004 5.97325 2.04071V4.31337C5.97325 5.26004 5.21992 6.02004 4.27992 6.02004H2.02659C1.09325 6.02004 0.333252 5.26004 0.333252 4.31337V2.04071C0.333252 1.10004 1.09325 0.333374 2.02659 0.333374H4.27992ZM11.9733 0.333374C12.9067 0.333374 13.6667 1.10004 13.6667 2.04071V4.31337C13.6667 5.26004 12.9067 6.02004 11.9733 6.02004H9.71999C8.77999 6.02004 8.02665 5.26004 8.02665 4.31337V2.04071C8.02665 1.10004 8.77999 0.333374 9.71999 0.333374H11.9733Z" fill="#7E859C"/>
</svg>
