<svg width="25" height="25" viewBox="0 0 25 25" fill="none" xmlns="http://www.w3.org/2000/svg">
<path fill-rule="evenodd" clip-rule="evenodd" d="M19.543 11.625C19.143 10.93 18.765 10.274 18.765 8.724C18.765 5.899 16.248 2.875 12.5 2.875C8.75204 2.875 6.23504 5.899 6.23504 8.725C6.23504 10.275 5.85604 10.932 5.45604 11.626C5.06704 12.302 4.66504 13 4.66504 14.372C4.66504 14.385 4.66504 14.399 4.66704 14.413C4.92604 17.527 7.73504 18.136 12.5 18.136C17.264 18.136 20.074 17.527 20.335 14.372C20.335 12.999 19.933 12.3 19.543 11.625Z" fill="#212226"/>
<path fill-rule="evenodd" clip-rule="evenodd" d="M14.6353 19.5996H10.4333C10.1443 19.5996 9.88233 19.7656 9.75733 20.0246C9.63233 20.2856 9.66733 20.5936 9.84733 20.8186C10.5133 21.6486 11.4903 22.1246 12.5303 22.1246C13.5753 22.1246 14.5553 21.6486 15.2203 20.8186C15.4013 20.5936 15.4363 20.2846 15.3113 20.0246C15.1863 19.7656 14.9243 19.5996 14.6353 19.5996Z" fill="#212226"/>
</svg>
