<svg width="24" height="24" viewBox="0 0 24 24" fill="none" xmlns="http://www.w3.org/2000/svg">
<path d="M11.3498 9.14258H15.3537" stroke="#212226" stroke-width="1.5" stroke-miterlimit="10" stroke-linecap="round" stroke-linejoin="round"/>
<path d="M8.43788 9.14258H8.71088" stroke="#212226" stroke-width="1.5" stroke-miterlimit="10" stroke-linecap="round" stroke-linejoin="round"/>
<path d="M11.3498 14.0566H15.3537" stroke="#212226" stroke-width="1.5" stroke-miterlimit="10" stroke-linecap="round" stroke-linejoin="round"/>
<path d="M8.43787 14.0566H8.71086" stroke="#212226" stroke-width="1.5" stroke-miterlimit="10" stroke-linecap="round" stroke-linejoin="round"/>
<path d="M17.4467 19.607L16.7187 19.243C16.2637 19.061 15.8087 19.061 15.3537 19.243L13.1698 20.062C12.3508 20.426 11.4408 20.426 10.5308 20.062L8.43787 19.243C7.98288 19.061 7.43689 19.061 7.0729 19.243L6.34491 19.607C5.61692 19.971 4.70694 19.425 4.70694 18.515V6.68521C4.70694 4.31925 5.98092 2.86328 8.34687 2.86328H15.3537C17.7197 2.86328 18.9937 4.31925 18.9937 6.68521V18.515C19.0847 19.334 18.1747 19.971 17.4467 19.607Z" stroke="#212226" stroke-width="1.5" stroke-miterlimit="10" stroke-linecap="round" stroke-linejoin="round"/>
</svg>
