<svg width="20" height="20" viewBox="0 0 20 20" fill="none" xmlns="http://www.w3.org/2000/svg">
<path d="M5.26611 7.23087C5.26611 10.5964 9.23975 13.8135 9.997 13.8135C10.7542 13.8135 14.7278 10.5964 14.7278 7.23087C14.7278 4.61774 12.6092 2.5 9.997 2.5C7.38466 2.5 5.26611 4.61774 5.26611 7.23087Z" stroke="#212226" stroke-width="1.25" stroke-linecap="round" stroke-linejoin="round"/>
<path fill-rule="evenodd" clip-rule="evenodd" d="M11.5753 7.19219C11.5753 6.32142 10.8691 5.61523 9.9983 5.61523C9.12755 5.61523 8.42139 6.32142 8.42139 7.19219C8.42139 8.06296 9.12755 8.76917 9.9983 8.76917C10.8691 8.76917 11.5753 8.06296 11.5753 7.19219Z" stroke="#212226" stroke-width="1.25" stroke-linecap="round" stroke-linejoin="round"/>
<path d="M15.3732 12.9785C16.2042 13.4448 16.694 14.0277 16.694 14.6649C16.694 15.3022 16.2042 15.8843 15.3732 16.3505C15.0854 16.5216 14.7667 16.6692 14.4019 16.8013C13.2287 17.2367 11.6898 17.501 10.0035 17.501C8.31786 17.501 6.77901 17.2367 5.60582 16.8013C5.24016 16.6692 4.91424 16.5143 4.62641 16.3505C3.79537 15.8843 3.30566 15.3022 3.30566 14.6649C3.30566 14.0277 3.79537 13.4448 4.62641 12.9785" stroke="#212226" stroke-width="1.25" stroke-linecap="round" stroke-linejoin="round"/>
</svg>
