<svg width="16" height="16" viewBox="0 0 16 16" fill="none" xmlns="http://www.w3.org/2000/svg">
<circle cx="8" cy="8" r="7.5" fill="#6D4AB6" stroke="white"/>
<path d="M12.0198 7.39671C11.879 7.18435 11.6858 6.99823 11.4448 6.8479C11.4137 6.82881 11.3803 6.80973 11.3469 6.79064C11.4734 6.56396 11.5617 6.33728 11.607 6.11537C11.6619 5.85051 11.6571 5.59043 11.5927 5.34466C11.5283 5.09889 11.4042 4.86266 11.2229 4.64075C11.0439 4.42123 10.8029 4.21841 10.5094 4.0323C10.235 3.8605 9.96299 3.74835 9.69813 3.70063C9.43089 3.65052 9.17081 3.66006 8.92265 3.72926C8.67688 3.79846 8.44066 3.92492 8.22352 4.10627C8.19489 4.13013 8.16626 4.15637 8.13762 4.18262C7.96105 3.99173 7.77494 3.83664 7.57689 3.72688C7.34305 3.59325 7.0949 3.5169 6.84197 3.50258C6.58904 3.48826 6.32419 3.5336 6.05933 3.6362C5.79686 3.73881 5.52723 3.90345 5.25998 4.12774C5.01183 4.33533 4.82094 4.55963 4.69209 4.79585C4.56324 5.03446 4.49166 5.285 4.47973 5.54032C4.4678 5.79563 4.51791 6.0581 4.62289 6.32057C4.63721 6.35637 4.65153 6.38977 4.66823 6.42556C4.43201 6.53294 4.2268 6.66417 4.05977 6.81688C3.85934 6.99823 3.7114 7.21298 3.61835 7.4492C3.52529 7.68543 3.48711 7.95029 3.50381 8.23662C3.52052 8.51818 3.59448 8.82599 3.72333 9.14811C3.84503 9.44876 4.00012 9.6993 4.18385 9.89496C4.36997 10.0906 4.5871 10.2362 4.8281 10.3268C5.06671 10.4175 5.33157 10.4509 5.61551 10.4318C5.65369 10.4295 5.69187 10.4247 5.73005 10.4199C5.76107 10.6776 5.82072 10.9138 5.91616 11.119C6.02831 11.3648 6.18341 11.5724 6.38145 11.7347C6.57711 11.8945 6.81811 12.0138 7.0949 12.0878C7.3693 12.1594 7.68188 12.1832 8.03025 12.1594C8.35237 12.1379 8.63871 12.0687 8.88209 11.9518C9.12786 11.8349 9.33068 11.675 9.49054 11.4722C9.65041 11.2717 9.76495 11.0308 9.83414 10.7563C9.84369 10.7206 9.84846 10.6824 9.85562 10.6442C10.1109 10.6967 10.3543 10.7086 10.581 10.6848C10.8506 10.6537 11.094 10.5702 11.3088 10.4318C11.5235 10.2958 11.7096 10.1026 11.8647 9.86394C12.0174 9.62533 12.1391 9.33423 12.2226 8.99779C12.3014 8.68521 12.3228 8.38933 12.2894 8.12447C12.2537 7.85484 12.163 7.61146 12.0222 7.39671H12.0198ZM8.87732 4.16115C9.06343 4.10627 9.25193 4.09195 9.44282 4.12058C9.63132 4.14683 9.81505 4.21603 9.98685 4.3234C10.1777 4.44271 10.3328 4.5811 10.4498 4.73381C10.5643 4.88414 10.6406 5.05355 10.6764 5.23251C10.7098 5.41385 10.7027 5.6119 10.6502 5.82426C10.6025 6.01992 10.5118 6.2299 10.3806 6.44704L10.3543 6.43988C10.0728 6.3683 9.82221 6.21081 9.6361 5.98652L8.35237 4.43555C8.5194 4.30431 8.69597 4.21126 8.87493 4.15876L8.87732 4.16115ZM5.70619 10.0906C5.49382 10.0978 5.29816 10.0691 5.12398 10.0071C4.94263 9.94269 4.78038 9.84247 4.64198 9.70885C4.50359 9.57522 4.39622 9.41297 4.31986 9.22447C4.23635 9.01688 4.19101 8.81406 4.18624 8.6184C4.18147 8.42751 4.21964 8.24616 4.29838 8.08152C4.37713 7.91449 4.5012 7.7594 4.66584 7.61862C4.82094 7.48738 5.0166 7.37285 5.25044 7.27263L5.25521 7.2774C5.43894 7.49692 5.5487 7.77133 5.56779 8.05766L5.70619 10.0906ZM4.97842 6.30149C4.90684 6.10105 4.87105 5.90539 4.87582 5.71927C4.88059 5.526 4.92593 5.33988 5.01183 5.16808C5.09534 4.99628 5.21703 4.84357 5.37452 4.71234C5.54632 4.56917 5.72527 4.46418 5.909 4.39976C6.08796 4.33772 6.27169 4.31624 6.45304 4.3401C6.63677 4.36397 6.82288 4.43316 7.00661 4.5477C7.17841 4.65507 7.35021 4.8054 7.51724 4.99628L7.50053 5.02492C7.34544 5.27069 7.11637 5.46158 6.84674 5.56895L4.98081 6.30387L4.97842 6.30149ZM9.27818 11.0976C9.16126 11.2503 9.01571 11.3743 8.8463 11.4626C8.67688 11.5533 8.48838 11.6034 8.28556 11.6177C8.06127 11.632 7.85368 11.613 7.66995 11.5581C7.4886 11.5032 7.32635 11.4125 7.19273 11.2861C7.05911 11.1596 6.94935 10.995 6.86583 10.7921C6.78948 10.606 6.73937 10.3817 6.71789 10.1288L6.72982 10.124C6.99707 10.0167 7.29294 9.99757 7.57212 10.0668L9.53827 10.5655C9.47861 10.7683 9.39271 10.9472 9.27818 11.0952V11.0976ZM9.59076 9.54659L6.69403 9.82338L5.53677 7.15571L7.71767 5.23012L10.2231 6.70712L9.59076 9.54659ZM11.7884 8.58738C11.7335 8.80451 11.65 8.9954 11.5402 9.15527C11.4328 9.31275 11.2944 9.43683 11.1346 9.52512C10.9723 9.6134 10.7814 9.66828 10.5643 9.6826C10.3639 9.69692 10.1348 9.67544 9.88902 9.61817C9.86993 9.33184 9.94152 9.04789 10.0942 8.80451L11.1775 7.0722C11.3517 7.1915 11.4949 7.32751 11.5999 7.48261C11.7096 7.64248 11.7812 7.81905 11.8146 8.00755C11.848 8.19605 11.8385 8.39172 11.7884 8.58976V8.58738Z" fill="white"/>
</svg>
