<svg width="16" height="17" viewBox="0 0 16 17" fill="none" xmlns="http://www.w3.org/2000/svg">
<path d="M10.3812 10.4398V12.0867C10.3812 13.419 9.30116 14.499 7.96883 14.499H4.8923C3.56063 14.499 2.48063 13.4197 2.48063 12.0874L2.47998 4.91135C2.47998 3.57902 3.55998 2.49902 4.89165 2.49902H7.96883C9.30049 2.49902 10.3805 3.57902 10.3805 4.91135V5.67546" stroke="#212226" stroke-linecap="round" stroke-linejoin="round"/>
<path fill-rule="evenodd" clip-rule="evenodd" d="M12.254 5.67676H8.92391C8.14551 5.67676 7.65771 6.22746 7.65771 7.00714V9.11068C7.65771 9.89041 8.14291 10.4411 8.92391 10.4411H12.254C13.0344 10.4411 13.5202 9.89041 13.5202 9.11068V7.00714C13.5202 6.22746 13.0344 5.67676 12.254 5.67676Z" stroke="#212226" stroke-linecap="round" stroke-linejoin="round"/>
<path d="M7.65771 7.36523H13.5202" stroke="#212226" stroke-linecap="round" stroke-linejoin="round"/>
<path d="M6.38836 12.0984V12.1286M6.51113 12.1049C6.51113 12.1731 6.4558 12.2284 6.38761 12.2284C6.31941 12.2284 6.26416 12.1731 6.26416 12.1049C6.26416 12.0367 6.31941 11.9814 6.38761 11.9814C6.4558 11.9814 6.51113 12.0367 6.51113 12.1049Z" stroke="#212226" stroke-linecap="round" stroke-linejoin="round"/>
</svg>
