<svg width="16" height="17" viewBox="0 0 16 17" fill="none" xmlns="http://www.w3.org/2000/svg">
<path fill-rule="evenodd" clip-rule="evenodd" d="M3.2342 2.66211H5.26639C5.94811 2.66211 6.5001 3.21475 6.5001 3.89582V5.92801C6.5001 6.60973 5.94811 7.16172 5.26639 7.16172H3.2342C2.55248 7.16172 2.00049 6.60973 2.00049 5.92801V3.89582C2.00049 3.21475 2.55248 2.66211 3.2342 2.66211Z" stroke="black" stroke-linecap="round" stroke-linejoin="round"/>
<path d="M4.25049 4.91016V4.91794" stroke="black" stroke-linecap="round" stroke-linejoin="round"/>
<path d="M4.25049 12.4102V12.4179" stroke="black" stroke-linecap="round" stroke-linejoin="round"/>
<path fill-rule="evenodd" clip-rule="evenodd" d="M3.2342 10.1621H5.26639C5.94811 10.1621 6.5001 10.7147 6.5001 11.3958V13.428C6.5001 14.1097 5.94811 14.6617 5.26639 14.6617H3.2342C2.55248 14.6617 2.00049 14.1097 2.00049 13.428V11.3958C2.00049 10.7147 2.55248 10.1621 3.2342 10.1621Z" stroke="black" stroke-linecap="round" stroke-linejoin="round"/>
<path fill-rule="evenodd" clip-rule="evenodd" d="M10.7342 14.6617H12.7664C13.4481 14.6617 14.0001 14.109 14.0001 13.428V11.3958C14.0001 10.7141 13.4481 10.1621 12.7664 10.1621H10.7342C10.0525 10.1621 9.50049 10.7141 9.50049 11.3958V13.428C9.50049 14.109 10.0525 14.6617 10.7342 14.6617Z" stroke="black" stroke-linecap="round" stroke-linejoin="round"/>
<path d="M11.7505 12.4121V12.4043" stroke="black" stroke-linecap="round" stroke-linejoin="round"/>
<path d="M9.50049 2.66016V2.66794" stroke="black" stroke-linecap="round" stroke-linejoin="round"/>
<path d="M14.0006 4.91224V3.64285C14.0006 3.10124 13.5615 2.66211 13.0206 2.66211H11.7505" stroke="black" stroke-linecap="round" stroke-linejoin="round"/>
<path d="M14.0006 7.16016H11.7505" stroke="black" stroke-linecap="round" stroke-linejoin="round"/>
<path d="M11.7506 4.91211H10.4812C9.93962 4.91211 9.50049 5.35124 9.50049 5.8922V7.16224" stroke="black" stroke-linecap="round" stroke-linejoin="round"/>
</svg>
