<svg width="48" height="48" viewBox="0 0 48 48" fill="none" xmlns="http://www.w3.org/2000/svg">
<path fill-rule="evenodd" clip-rule="evenodd" d="M31.426 17.952L23.36 26.022C23.08 26.302 22.698 26.46 22.3 26.46C21.902 26.46 21.52 26.302 21.238 26.02L17.324 22.1C16.74 21.514 16.74 20.564 17.326 19.978C17.914 19.394 18.862 19.394 19.448 19.98L22.302 22.838L29.304 15.83C29.89 15.244 30.84 15.244 31.426 15.83C32.012 16.416 32.012 17.366 31.426 17.952ZM24 5C15.15 5 7.948 12.202 7.948 21.054C7.948 32.326 21.132 43 24 43C26.87 43 40.052 32.326 40.052 21.054C40.052 12.202 32.852 5 24 5Z" fill="#6332CC"/>
</svg>
