<svg width="20" height="20" viewBox="0 0 20 20" fill="none" xmlns="http://www.w3.org/2000/svg">
<path fill-rule="evenodd" clip-rule="evenodd" d="M10.0001 8.87067C9.01674 8.87067 8.21676 8.07067 8.21676 7.08734C8.21676 6.104 9.01674 5.304 10.0001 5.304C10.9834 5.304 11.7834 6.104 11.7834 7.08734C11.7834 8.07067 10.9834 8.87067 10.0001 8.87067ZM10.0001 1.979C7.15843 1.979 4.8501 4.28734 4.8501 7.129C4.8501 10.654 8.87507 14.129 10.0001 14.129C11.1167 14.129 15.1417 10.654 15.1417 7.129C15.1417 4.28734 12.8334 1.979 10.0001 1.979Z" fill="#CA7E32"/>
<path fill-rule="evenodd" clip-rule="evenodd" d="M15.6794 12.3295C15.3785 12.1595 14.9969 12.2679 14.8285 12.5687C14.6594 12.8695 14.766 13.2504 15.0677 13.4195C15.7135 13.782 16.0694 14.187 16.0694 14.5612C16.0694 15.0637 15.4419 15.4912 15.0552 15.7087C14.801 15.8587 14.5169 15.9904 14.1844 16.112C11.8877 16.9629 8.12351 16.9645 5.81851 16.1104C5.51101 15.9987 5.21351 15.8612 4.93268 15.7012C4.55768 15.492 3.93018 15.0645 3.93018 14.5612C3.93018 14.0562 4.55768 13.6295 4.93268 13.4195C5.23351 13.2504 5.34018 12.8695 5.17184 12.5687C5.00268 12.2679 4.62268 12.1612 4.32018 12.3295C2.96518 13.0895 2.68018 13.962 2.68018 14.5612C2.68018 15.1587 2.96518 16.0312 4.31768 16.7904C4.65684 16.9829 5.01851 17.1495 5.38768 17.2837C6.67184 17.7595 8.31101 18.022 10.0027 18.022C11.696 18.022 13.3352 17.7595 14.616 17.2845C15.0185 17.1387 15.3702 16.9745 15.6794 16.7912C17.0344 16.0304 17.3194 15.1587 17.3194 14.5612C17.3194 13.9629 17.0344 13.0904 15.6794 12.3295Z" fill="#CA7E32"/>
</svg>
