<svg width="16" height="17" viewBox="0 0 16 17" fill="none" xmlns="http://www.w3.org/2000/svg">
<path fill-rule="evenodd" clip-rule="evenodd" d="M8 2.5C11.3139 2.5 14 5.18605 14 8.5C14 11.8139 11.3139 14.5 8 14.5C4.68605 14.5 2 11.8139 2 8.5C2 5.18605 4.68605 2.5 8 2.5Z" stroke="#212226" stroke-linecap="round" stroke-linejoin="round"/>
<path d="M4.41103 3.76758C4.41103 3.76758 5.8627 7.76909 2 8.49949" stroke="#212226" stroke-linecap="round" stroke-linejoin="round"/>
<path d="M2.59326 11.1073C3.21726 11.1507 4.35369 10.9639 6.02072 9.76528C8.00556 8.33561 8.46156 11.357 7.83109 14.4907" stroke="#212226" stroke-linecap="round" stroke-linejoin="round"/>
<path d="M8.26884 2.5C8.26884 2.5 7.86024 4.19103 9.02971 5.10562C10.1992 6.01957 11.073 5.95275 11.2182 7.11513C11.3636 8.27753 9.92878 8.47273 10.9782 10.2027C11.671 11.345 12.4533 12.0598 12.4241 12.5327" stroke="#212226" stroke-linecap="round" stroke-linejoin="round"/>
</svg>
