<svg width="20" height="19" viewBox="0 0 20 19" fill="none" xmlns="http://www.w3.org/2000/svg">
<path fill-rule="evenodd" clip-rule="evenodd" d="M11.3568 9.98468L11.2339 10.0538C10.6848 10.3629 10.4908 10.5175 10.4947 10.7709C10.4995 11.1684 10.1817 11.4957 9.78428 11.5015H9.77468C9.38108 11.5015 9.05948 11.1856 9.05468 10.7911C9.0374 9.63716 9.97148 9.11204 10.5283 8.79908L10.6512 8.729C11.1417 8.45828 11.3769 8.10212 11.3769 7.6346C11.3769 6.86564 10.7548 6.24068 9.98972 6.24068C9.21308 6.24068 8.60348 6.8522 8.60348 7.6346C8.60348 8.03204 8.28092 8.3546 7.88345 8.3546C7.48601 8.3546 7.16345 8.03204 7.16345 7.6346C7.16345 6.07172 8.43164 4.80068 9.98972 4.80068C11.5478 4.80068 12.8169 6.07172 12.8169 7.6346C12.8169 8.63012 12.2976 9.46436 11.3568 9.98468ZM10.4956 12.9453C10.4956 13.3437 10.1731 13.6653 9.77564 13.6653C9.37724 13.6653 9.05564 13.3437 9.05564 12.9453C9.05564 12.5479 9.37724 12.2224 9.77564 12.2224C10.1731 12.2224 10.4956 12.5421 10.4956 12.9396V12.9453ZM17.1744 3.58436C15.55 1.52228 13.1299 0.252201 10.5331 0.100521C7.92857 -0.054999 5.38553 0.919401 3.54617 2.76356C0.853373 5.465 0.118974 9.61412 1.70969 13.0653C1.74809 13.1613 1.86521 13.4532 2.66009 14.8384C2.74937 14.993 2.73977 15.1802 2.63705 15.3271C2.42393 15.6285 2.15417 16.0135 1.94393 16.3303C1.67225 16.7383 1.64729 17.2605 1.87865 17.6916C2.10713 18.1188 2.55065 18.3837 3.03449 18.3837H3.62681C5.90297 18.3837 9.1814 18.3808 9.96572 18.3837H9.9974C12.6873 18.3837 15.2304 17.1962 16.9785 15.1226C19.7606 11.8231 19.8432 6.97028 17.1744 3.58436Z" fill="#FBFBFB"/>
</svg>
