<svg width="24" height="24" viewBox="0 0 24 24" fill="none" xmlns="http://www.w3.org/2000/svg">
<path d="M10.4497 20.4009L8.74121 18.0228L11.1063 16.3237" stroke="white" stroke-width="1.44" stroke-linecap="round" stroke-linejoin="round"/>
<path d="M3.67285 5.2048L6.58527 4.89749L6.89071 7.7931" stroke="white" stroke-width="1.44" stroke-linecap="round" stroke-linejoin="round"/>
<path d="M20.3278 6.95624L19.1014 9.61554L16.457 8.39657" stroke="white" stroke-width="1.44" stroke-linecap="round" stroke-linejoin="round"/>
<path d="M18.7954 13.125C18.6384 13.6229 18.4208 14.118 18.1508 14.5943C16.2743 17.9028 12.3186 19.2758 8.86719 18.0214" stroke="white" stroke-width="1.44" stroke-linecap="round" stroke-linejoin="round"/>
<path d="M5.86856 16.0572C5.51362 15.6742 5.19043 15.2399 4.91114 14.7701C2.96455 11.5027 3.72862 7.38439 6.52707 5.00626" stroke="white" stroke-width="1.44" stroke-linecap="round" stroke-linejoin="round"/>
<path d="M9.87891 3.2844C10.3898 3.17511 10.9279 3.12 11.4752 3.12C15.2787 3.12 18.4247 5.88389 19.0365 9.50527" stroke="white" stroke-width="1.44" stroke-linecap="round" stroke-linejoin="round"/>
</svg>
