<svg width="48" height="48" viewBox="0 0 48 48" fill="none" xmlns="http://www.w3.org/2000/svg">
<path fill-rule="evenodd" clip-rule="evenodd" d="M14.5074 26.4812L15.9167 29.2967C16.0569 29.5751 16.3237 29.7655 16.6309 29.8086L19.7855 30.2624C20.2942 30.3298 20.6533 30.8006 20.5861 31.3106C20.5611 31.5198 20.4613 31.7142 20.3096 31.8599L18.0287 34.0512C17.8041 34.2643 17.7042 34.5761 17.756 34.8808L18.2956 37.9726C18.3781 38.49 18.0268 38.9758 17.5122 39.058C17.3087 39.0916 17.1013 39.0562 16.917 38.9608L14.1004 37.4999C13.8239 37.3561 13.4956 37.3561 13.2172 37.4999L10.3986 38.9608C9.93587 39.2056 9.36373 39.0299 9.11989 38.5686C9.02197 38.3873 8.98933 38.178 9.02005 37.9745L9.55959 34.8808C9.61527 34.5761 9.51159 34.266 9.28695 34.0512L7.00407 31.8599C6.63543 31.503 6.62387 30.9127 6.98099 30.5408C7.12883 30.3895 7.32087 30.2924 7.53207 30.2624L10.6828 29.8105C10.9919 29.7675 11.2588 29.5751 11.3989 29.2986L12.8121 26.4812C13.054 26.0123 13.63 25.8294 14.0984 26.0722C14.2732 26.1636 14.4153 26.3057 14.5074 26.4812Z" stroke="#5C6065" stroke-width="2" stroke-linecap="round" stroke-linejoin="round"/>
<path fill-rule="evenodd" clip-rule="evenodd" d="M35.1922 26.4812L36.6013 29.2967C36.7415 29.5751 37.0086 29.7655 37.3177 29.8086L40.4703 30.2624C40.981 30.3298 41.3401 30.8006 41.2729 31.3106C41.246 31.5198 41.146 31.7142 40.9962 31.8599L38.7154 34.0512C38.4908 34.2643 38.389 34.5761 38.4428 34.8808L38.9823 37.9726C39.0649 38.49 38.7135 38.9758 38.197 39.058C37.9935 39.0916 37.786 39.0562 37.6036 38.9608L34.7852 37.4999C34.5087 37.3561 34.1804 37.3561 33.902 37.4999L31.0854 38.9608C30.6207 39.2056 30.0505 39.0299 29.8047 38.5686C29.7087 38.3873 29.674 38.178 29.7066 37.9745L30.2461 34.8808C30.2999 34.5761 30.1981 34.266 29.9735 34.0512L27.6908 31.8599C27.3202 31.503 27.3087 30.9127 27.6658 30.5408C27.8137 30.3895 28.0057 30.2924 28.2169 30.2624L31.3695 29.8105C31.6767 29.7675 31.9434 29.5751 32.0836 29.2986L33.4969 26.4812C33.7388 26.0123 34.3148 25.8294 34.7833 26.0722C34.9599 26.1636 35.102 26.3057 35.1922 26.4812Z" stroke="#5C6065" stroke-width="2" stroke-linecap="round" stroke-linejoin="round"/>
<path fill-rule="evenodd" clip-rule="evenodd" d="M24.8506 11.0429L26.2579 13.8584C26.3981 14.1368 26.6671 14.3272 26.9743 14.3702L30.1269 14.8241C30.6376 14.8932 30.9967 15.3623 30.9295 15.8722C30.9026 16.0815 30.8045 16.2758 30.6528 16.4216L28.372 18.6128C28.1474 18.8258 28.0476 19.1378 28.0994 19.4422L28.6387 22.5342C28.7213 23.0516 28.3699 23.5374 27.8534 23.6196C27.6499 23.6532 27.4426 23.6177 27.2602 23.5224L24.4435 22.0615C24.167 21.9196 23.8368 21.9196 23.5584 22.0615L20.7419 23.5224C20.2792 23.7691 19.707 23.5915 19.4631 23.1302C19.3652 22.9489 19.3306 22.7396 19.3633 22.5361L19.9028 19.4422C19.9566 19.1378 19.8548 18.8277 19.6302 18.6128L17.3473 16.4233C16.9767 16.0646 16.9671 15.4742 17.3223 15.1025C17.4702 14.9512 17.6641 14.8541 17.8734 14.8241L21.0259 14.3721C21.3331 14.3291 21.6021 14.1368 21.7423 13.8601L23.1533 11.0429C23.3971 10.574 23.9714 10.3908 24.4418 10.6337C24.6165 10.7253 24.7584 10.8674 24.8506 11.0429Z" stroke="#5C6065" stroke-width="2" stroke-linecap="round" stroke-linejoin="round"/>
</svg>
