<svg width="24" height="24" viewBox="0 0 24 24" fill="none" xmlns="http://www.w3.org/2000/svg">
<path d="M3.95142 7.19322V4.46986C3.95142 4.05051 4.29099 3.71094 4.71034 3.71094H19.3274C19.7525 3.71094 20.095 4.06024 20.0863 4.4864L20.0298 7.12024L20.9843 11.7896C21.0807 12.2595 20.7207 12.7003 20.241 12.7003H3.75974C3.27909 12.7003 2.92006 12.2605 3.01542 11.7896L3.95142 7.19322Z" stroke="black" stroke-width="1.5" stroke-linecap="round" stroke-linejoin="round"/>
<path d="M3.95117 7.19531L20.0293 7.19541" stroke="black" stroke-width="1.5" stroke-linecap="round" stroke-linejoin="round"/>
<path d="M19.9775 20.2865V12.6992" stroke="black" stroke-width="1.5" stroke-linecap="round" stroke-linejoin="round"/>
<path d="M4.04102 12.6992V19.2473C4.04102 19.8214 4.5061 20.2865 5.07918 20.2865H13.0839C13.6579 20.2865 14.122 19.8214 14.122 19.2473V12.6992" stroke="black" stroke-width="1.5" stroke-linecap="round" stroke-linejoin="round"/>
<path d="M6.35156 12.6992V16.3683H10.7922V12.6992" stroke="black" stroke-width="1.5" stroke-linecap="round" stroke-linejoin="round"/>
</svg>
