<svg width="16" height="16" viewBox="0 0 16 16" fill="none" xmlns="http://www.w3.org/2000/svg">
<path d="M2 10.3539V11.4053C2 12.8381 3.16173 13.9999 4.59524 13.9999H5.43329" stroke="white" stroke-linecap="round" stroke-linejoin="round"/>
<path d="M2 5.64605V4.59459C2 3.16173 3.16173 2 4.59524 2H5.4547" stroke="white" stroke-linecap="round" stroke-linejoin="round"/>
<path d="M13.9997 5.64605V4.59459C13.9997 3.16173 12.838 2 11.4045 2H10.5664" stroke="white" stroke-linecap="round" stroke-linejoin="round"/>
<path d="M12.6359 10.0686C12.6359 8.55013 11.4048 7.319 9.88632 7.319C8.36785 7.319 7.13672 8.55013 7.13672 10.0686C7.13672 11.5871 8.36785 12.8176 9.88632 12.8176C11.4048 12.8176 12.6359 11.5871 12.6359 10.0686Z" stroke="white" stroke-linecap="round" stroke-linejoin="round"/>
<path d="M11.7578 12.0827L13.2393 13.5616" stroke="white" stroke-linecap="round" stroke-linejoin="round"/>
</svg>
