<svg width="15" height="16" viewBox="0 0 15 16" fill="none" xmlns="http://www.w3.org/2000/svg">
<path fill-rule="evenodd" clip-rule="evenodd" d="M14.0576 6.14718L3.24636 0.220747C2.65356 -0.103253 1.95196 -0.0528528 1.41356 0.357547C0.873563 0.768747 0.635163 1.43515 0.791163 2.09675L1.90305 6.79886C1.93731 6.94374 2.06696 7.0459 2.21583 7.04526L9.20636 7.01518H9.20876C9.53916 7.01518 9.80716 7.28238 9.80876 7.61278C9.81036 7.94478 9.54236 8.21358 9.21116 8.21518L2.20715 8.24606C2.05933 8.2467 1.93119 8.34854 1.89716 8.49238L0.791163 13.1688C0.635163 13.8304 0.873563 14.4976 1.41356 14.9096C1.71756 15.1408 2.07436 15.2584 2.43356 15.2584C2.70956 15.2584 2.98876 15.1888 3.24636 15.0472L14.0576 9.12078C14.608 8.81838 14.9368 8.26318 14.9368 7.63358C14.9368 7.00478 14.608 6.44878 14.0576 6.14718Z" fill="white"/>
</svg>
