<svg width="18" height="16" viewBox="0 0 18 16" fill="none" xmlns="http://www.w3.org/2000/svg">
<path d="M17.22 13.0266L10.7267 1.06661C10.5547 0.750749 10.3009 0.487085 9.99171 0.303374C9.68256 0.119664 9.32961 0.0227051 8.96999 0.0227051C8.61038 0.0227051 8.25742 0.119664 7.94828 0.303374C7.63913 0.487085 7.38524 0.750749 7.21333 1.06661L0.713327 13.0266C0.543197 13.332 0.456077 13.6766 0.460651 14.0262C0.465225 14.3757 0.561333 14.7179 0.739395 15.0187C0.917458 15.3196 1.17126 15.5685 1.47549 15.7406C1.77972 15.9128 2.12377 16.0022 2.47333 15.9999H15.46C15.8067 16.0003 16.1475 15.9104 16.449 15.7393C16.7505 15.5682 17.0024 15.3216 17.1799 15.0238C17.3574 14.726 17.4544 14.3871 17.4614 14.0405C17.4684 13.6939 17.3853 13.3514 17.22 13.0466V13.0266ZM7.97333 4.49327C7.97333 4.22806 8.07868 3.9737 8.26622 3.78617C8.45376 3.59863 8.70811 3.49327 8.97333 3.49327C9.23854 3.49327 9.4929 3.59863 9.68044 3.78617C9.86797 3.9737 9.97333 4.22806 9.97333 4.49327V9.08661C9.97333 9.35182 9.86797 9.60618 9.68044 9.79371C9.4929 9.98125 9.23854 10.0866 8.97333 10.0866C8.70811 10.0866 8.45376 9.98125 8.26622 9.79371C8.07868 9.60618 7.97333 9.35182 7.97333 9.08661V4.49327ZM8.99999 13.4999C8.77321 13.4999 8.55151 13.4327 8.36294 13.3067C8.17437 13.1807 8.0274 13.0016 7.94061 12.7921C7.85382 12.5826 7.83112 12.352 7.87536 12.1296C7.91961 11.9071 8.02882 11.7028 8.18918 11.5425C8.34954 11.3821 8.55386 11.2729 8.77629 11.2286C8.99872 11.1844 9.22928 11.2071 9.4388 11.2939C9.64833 11.3807 9.82742 11.5277 9.95341 11.7162C10.0794 11.9048 10.1467 12.1265 10.1467 12.3533C10.1467 12.6574 10.0259 12.949 9.81081 13.1641C9.59577 13.3791 9.30411 13.4999 8.99999 13.4999Z" fill="#EFB51C"/>
</svg>
