<?xml version="1.0" encoding="UTF-8"?>
<svg id="Layer_2" data-name="Layer 2" xmlns="http://www.w3.org/2000/svg" viewBox="0 0 1632.65 207.09">
  <g id="Layer_1-2" data-name="Layer 1">
    <g>
      <path d="M187.7,78.1c3.49,2.79,6.89,5.12,9.82,7.94,8.05,7.74,12.32,17.34,12.56,28.48,.3,14.34-3.74,27.57-11.83,39.37-9.91,14.46-24.19,19.33-41.17,17.59-1.61-.16-3.2-.41-4.99-.64-.45,1.33-.85,2.37-1.15,3.44-4.84,17.07-16.04,27.42-33.33,31.13-10.23,2.2-20.55,2.31-30.77-.1-17.53-4.14-28.23-15.17-32.38-32.61-.52-2.2-.94-4.42-1.47-6.94-1.55,0-2.82-.03-4.1,.01-16.54,.57-29.32-6.26-38.15-20.04C3.32,134.16-.51,121.39,.06,107.51c.59-14.4,7.51-25.15,19.36-32.96,2.44-1.61,5.04-3,7.83-4.64-.61-1.81-1.17-3.49-1.74-5.16-3.88-11.45-3.55-22.78,2.53-33.27C37.27,15.54,51.08,5.05,69.1,1c14.39-3.24,26.84,1.64,37.57,11.34,1.2,1.09,2.36,2.22,3.76,3.54,1.01-.71,1.94-1.3,2.8-1.98,12.9-10.34,27.22-12.5,42.58-6.85,11.3,4.15,20.86,11.08,28.53,20.35,10.94,13.23,12.72,27.97,6.49,43.8-.89,2.27-2.01,4.46-3.13,6.91Zm-139.13,9.35c8.88,20.41,17.52,40.41,26.38,60.32,.58,1.31,2.89,2.8,4.26,2.68,20.93-1.81,41.85-3.82,62.74-6.02,1.41-.15,3.47-1.97,3.79-3.35,4.73-20.43,9.27-40.91,13.65-61.41,.28-1.29-.68-3.65-1.78-4.31-18.15-10.89-36.39-21.62-54.71-32.22-1.12-.65-3.62-.43-4.58,.4-16.56,14.45-32.97,29.05-49.74,43.91Zm3.95,69.37c-1.01-15.63-1.99-30.94-2.99-46.26-.1-1.47,.04-3.05-.47-4.37-1.75-4.54-3.57-9.07-5.76-13.4-.46-.91-2.91-1.74-3.87-1.32-13.81,6.09-25.82,17.7-22.45,36.45,3.32,18.49,17.96,30.75,35.54,28.91Zm90.72,11.77c-16.29-4.17-32.22-8.59-48.34-12.18-4.57-1.02-9.7,.3-14.55,.74-2.81,.26-3.55,1.94-3.26,4.81,2.19,21.74,17.54,34.13,39.25,31.49,13.35-1.62,25.07-12.22,26.89-24.87ZM116.21,22.25c.53,.9,.77,1.5,1.16,1.97,9.84,11.82,19.4,23.89,29.69,35.3,3.69,4.09,9.07,6.74,13.91,9.67,.87,.53,3.57-.33,4.24-1.34,14.35-21.56,2.43-48.48-23.25-52.78-9.67-1.62-17.95,1.41-25.75,7.18Zm66.48,63.55c-9.24,15.02-18.36,29.78-27.36,44.62-1.08,1.78-1.64,3.94-2.13,6-2.21,9.27-1.6,10.09,7.74,10.98,1.14,.11,2.29,.23,3.44,.27,16.4,.58,28.11-8.28,32.81-24.81,4.18-14.68-1.37-29.44-14.49-37.06ZM35.45,66.68c13.94-5.63,27.6-11.13,41.25-16.67,2.28-.92,4.53-1.93,6.74-2.99,1.17-.57,2.28-1.3,3.35-2.05,9.79-6.89,9.87-9.74,.48-17.07-12.98-10.13-27.03-10.33-40.34-.56-12.89,9.46-17.36,24.2-11.47,39.35Z"/>
      <path d="M1146.44,17.75c6.98,0,13.68-.2,20.35,.14,1.23,.06,2.8,2.02,3.47,3.45,18.28,39.04,36.45,78.13,54.66,117.2,1.01,2.17,2.15,4.27,3.72,7.38,2.98-6.79,5.57-12.6,8.07-18.44,15.07-35.09,30.19-70.16,45.08-105.32,1.55-3.66,3.42-4.95,7.28-4.71,5.2,.32,10.44,.07,15.96,.06,.07,58.01,.14,115.45,.21,173.18-7.92,0-15.56,.02-23.88,.03-.06-47.07-.11-94.12-.17-141.18-.45-.13-.91-.25-1.36-.38-.82,1.8-1.67,3.58-2.45,5.4-16.93,39.1-33.87,78.2-50.75,117.33-1.15,2.67-2.12,4.62-5.82,4.63-3.68,.01-5.1-1.57-6.49-4.49-18.4-38.98-36.88-77.93-55.35-116.88-.89-1.88-1.82-3.75-3.72-5.43,.06,46.87,.11,93.74,.17,141.02-3.23,0-5.88,0-8.79,.01-.07-57.6-.14-115.03-.2-173.01Z"/>
      <path d="M1025.12,100.91c-5.97,7.38-11.63,14.14-16.95,21.15-1.03,1.36-1.01,3.71-1.01,5.6-.05,19.18,0,38.36,.03,57.54,0,1.78,0,3.56,0,5.74-8.15,0-15.91,.02-24.02,.03-.07-57.47-.14-114.9-.2-172.7,7.9,0,15.66-.02,23.87-.03,.04,30.37,.07,60.47,.11,92.24,2.3-2.34,3.61-3.59,4.84-4.93,25.62-27.91,51.33-55.74,76.72-83.86,3.89-4.31,7.81-4.2,13.55-3.48-20.19,22.46-39.76,44.22-59.49,66.17,21.95,35.46,43.73,70.66,66.1,106.81-10.08,.01-19.17,.19-28.24-.15-1.34-.05-2.88-2.39-3.82-3.97-16.25-27.15-32.42-54.35-48.61-81.53-.75-1.26-1.55-2.49-2.87-4.62Z"/>
      <path d="M482.37,50.2c.06,46.99,.11,93.99,.17,141.37-3.23,0-6.07,0-9.29,.01-.07-57.47-.14-114.91-.2-173.02,5.28,0,10.5-.35,15.64,.18,1.61,.17,3.23,2.49,4.42,4.13,31.53,43.38,63.01,86.81,94.5,130.22,1.19,1.64,2.42,3.25,4.64,4.46-.05-46.13-.11-92.25-.16-138.79,3.33,0,6.16,0,9.35-.01,.07,57.3,.14,114.46,.2,172.39-4.48,.21-9.18,.75-13.82,.45-1.45-.09-3-2.26-4.1-3.77-30.63-42.22-61.2-84.48-91.79-126.72-2.77-3.82-5.6-7.6-8.4-11.4l-1.14,.49Z"/>
      <path d="M825.02,18.09c0,4.63,0,8.38,.01,12.14,.04,33.77-.13,67.55,.27,101.32,.1,8.1,1.18,16.42,3.35,24.21,4.87,17.47,17.05,27.03,35.06,29.18,18.79,2.24,34.04-3.59,44.41-19.91,5.76-9.07,8.48-19.21,8.52-29.9,.12-36.89,.05-73.78,.05-110.66,0-1.93,0-3.86,0-6.13,3.39,0,6.23,0,9.3-.01,.15,1.15,.38,2.09,.38,3.03,.02,37.38,.2,74.76-.08,112.14-.1,13.98-3.26,27.36-11.73,38.95-10.46,14.31-25.29,20.42-42.38,21.7-13.76,1.04-27.25-.54-39.95-6.32-19.81-9.02-28.99-25.33-30.79-46.25-.65-7.49-.35-15.07-.37-22.61-.07-31.81,0-63.61-.22-95.42-.03-4.3,1.06-5.8,5.47-5.53,6.01,.37,12.07,.08,18.71,.07Z"/>
      <path d="M1478.86,17.48c3.5,0,6.1,0,9.31-.01,.11,1.85,.29,3.57,.3,5.29,.06,35.56,.24,71.12,.01,106.69-.05,7.47-.92,15.1-2.65,22.36-5.39,22.62-22.09,37.5-45.13,40.96-12.67,1.9-25.23,1.18-37.53-2.41-23.13-6.74-35.93-22.4-39.19-46.03-.54-3.88-.77-7.84-.78-11.76-.1-36.55-.05-73.09-.25-109.64-.02-4.2,.91-5.88,5.41-5.59,6.03,.38,12.1,.08,19.03,.07,0,2.27,0,4.14,0,6.01,.04,36.55-.07,73.09,.26,109.63,.07,7.28,1.03,14.79,3.03,21.77,4.84,16.89,16.32,26.81,33.94,29.26,18.44,2.57,33.87-2.46,44.72-18.23,7.33-10.65,9.63-22.84,9.63-35.52,.02-35.56-.06-71.12-.11-106.69,0-1.93,0-3.85,0-6.19Z"/>
      <path d="M292.6,19.03c8.2,0,15.82-.02,24.26-.03,0,2.23,0,4.28,0,6.34,.12,37.36,.22,74.73,.39,112.09,.02,3.26,.34,6.55,.85,9.78,3.91,24.71,17.94,37.45,42.6,38.79,21.53,1.17,39.62-12.37,45.25-34.62,1.71-6.75,2.37-13.92,2.41-20.9,.2-35.23,.03-70.47-.02-105.71,0-1.78,0-3.56,0-5.76,3.29,0,6.14,0,9.25-.01,.14,.79,.44,1.73,.44,2.66,.03,37.69,.12,75.39-.06,113.08-.03,5.52-.9,11.13-2.15,16.53-6.32,27.18-26.33,43.2-54.99,43.56-8.45,.11-17.14-.66-25.34-2.6-25.89-6.12-41.14-24.55-42.41-51.12-.71-14.88-.33-29.82-.37-44.73-.06-23.76-.07-47.53-.09-71.29,0-1.92,0-3.84,0-6.06Z"/>
      <path d="M688.67,26.04c-18.34,.02-36.15,.04-54.27,.06,0-2.86,0-5.05,0-7.51,44.23-.05,88.14-.1,132.39-.16,0,2.44,0,4.62,0,7.4-17.83,.02-35.47,.04-53.71,.06,.07,55.4,.13,110.21,.2,165.41-8.36,0-16.11,.02-24.41,.03-.07-54.99-.13-109.81-.2-165.29Z"/>
      <path d="M1607.77,81.53c-1.43,0-2.91-.21-4.31,.04-8.43,1.51-14.16-1.03-15.85-10.08-.54-2.89-2.63-3.25-5.18-3.2-6.89,.12-13.79,.18-20.68,0-2.91-.08-4.86,.76-5.42,3.65-1.66,8.58-7.07,11.1-15.14,9.7-1.59-.27-3.26-.04-5.62-.03,.78-1.88,1.33-3.33,1.98-4.74,8.56-18.41,17.22-36.77,25.64-55.24,1.44-3.17,3.2-4.53,6.63-4.09,1.94,.25,3.99-.23,5.89,.13,1.36,.26,3.22,1.06,3.74,2.15,9.58,20.1,18.99,40.28,28.42,60.45,.12,.25-.03,.62-.08,1.25Zm-35.73-46.24c-3.1,7.23-5.81,13.56-8.71,20.33,6.2,0,11.51-.01,17.41-.02-2.87-6.69-5.55-12.96-8.7-20.31Z"/>
      <path d="M1632.65,81.26c-5.5,0-10.67,.01-16.12,.02-.03-21.24-.05-42.24-.08-63.49,5.42,0,10.6-.01,16.12-.02,.02,21.06,.05,42.06,.08,63.49Z"/>
      <path d="M1512.89,65.19c5.51,0,10.55-.01,16-.02,0,5.4,.01,10.65,.02,16.18-5.26,0-10.42,.01-16,.02,0-5.22-.01-10.48-.02-16.18Z"/>
    </g>
  </g>
</svg>