<svg width="169" height="24" viewBox="0 0 169 24" fill="none" xmlns="http://www.w3.org/2000/svg">
<g clip-path="url(#clip0_3103_1873)">
<path d="M46.1252 14.3485C46.1252 15.3093 45.9915 16.181 45.7243 16.9445C45.4634 17.7017 45.0944 18.3508 44.6299 18.8725C44.1717 19.3943 43.6182 19.7952 42.9946 20.0751C42.3647 20.3551 41.6775 20.4951 40.9521 20.4951C40.1504 20.4951 39.4123 20.3742 38.7632 20.126C38.1269 19.8842 37.5734 19.5215 37.128 19.038C36.6762 18.5544 36.3262 17.9308 36.0781 17.1927C35.8299 16.4419 35.7027 15.5511 35.7027 14.5457V1.43167H32.9539V14.5903C32.9539 15.6592 33.1129 16.6328 33.4311 17.479C33.7492 18.338 34.2328 19.0761 34.8627 19.6679C35.4927 20.2596 36.2753 20.7114 37.1916 21.0232C38.1015 21.3286 39.1577 21.4813 40.3412 21.4813C41.4357 21.4813 42.4219 21.3095 43.2682 20.9723C44.1208 20.6351 44.8526 20.1388 45.438 19.4897C46.0234 18.8471 46.4688 18.0581 46.7678 17.1482C47.0605 16.2446 47.2069 15.2138 47.2069 14.0939V1.43167H46.1188V14.3485H46.1252Z" fill="black"/>
<path d="M103.945 14.3485C103.945 15.3093 103.812 16.181 103.544 16.9446C103.283 17.7018 102.914 18.3508 102.45 18.8726C101.992 19.3943 101.438 19.7952 100.815 20.0752C100.185 20.3551 99.4975 20.4951 98.7722 20.4951C97.9704 20.4951 97.2323 20.3742 96.5833 20.1261C95.947 19.8843 95.3934 19.5216 94.948 19.038C94.4963 18.5544 94.1463 17.9308 93.8981 17.1927C93.65 16.4419 93.5227 15.5511 93.5227 14.5457V1.4317H90.7739V14.5903C90.7739 15.6593 90.933 16.6328 91.2511 17.4791C91.5693 18.3381 92.0529 19.0762 92.6828 19.6679C93.3127 20.2597 94.0954 20.7114 95.0117 21.0232C95.9216 21.3287 96.9778 21.4814 98.1613 21.4814C99.2557 21.4814 100.242 21.3096 101.088 20.9723C101.941 20.6351 102.673 20.1388 103.258 19.4898C103.843 18.8471 104.289 18.0581 104.588 17.1482C104.881 16.2447 105.027 15.2139 105.027 14.094V1.4317H103.939V14.3485H103.945Z" fill="black"/>
<path d="M167.905 1.4317V14.3485C167.905 15.3093 167.772 16.181 167.505 16.9446C167.244 17.7018 166.875 18.3508 166.41 18.8726C165.952 19.3943 165.398 19.7952 164.775 20.0752C164.145 20.3551 163.458 20.4951 162.732 20.4951C161.931 20.4951 161.193 20.3742 160.544 20.1261C159.907 19.8843 159.354 19.5216 158.908 19.038C158.456 18.5544 158.106 17.9308 157.858 17.1927C157.61 16.4419 157.483 15.5511 157.483 14.5457V1.4317H154.734V14.5903C154.734 15.6593 154.893 16.6328 155.211 17.4791C155.529 18.3381 156.013 19.0762 156.643 19.6679C157.273 20.2597 158.056 20.7114 158.972 21.0232C159.882 21.3287 160.938 21.4814 162.122 21.4814C163.216 21.4814 164.202 21.3096 165.048 20.9723C165.901 20.6351 166.633 20.1388 167.218 19.4898C167.804 18.8471 168.249 18.0581 168.548 17.1482C168.841 16.2447 168.987 15.2139 168.987 14.094V1.4317H167.899H167.905Z" fill="black"/>
<path d="M67.0209 17.5172L55.3831 1.4317H53.436V21.1632H54.5241V4.7468L66.3719 21.1632L68.109 21.1059V1.4317H67.0209V17.5172Z" fill="black"/>
<path d="M71.7996 2.30343L78.0034 2.31615V21.1632H80.7522V2.31615H86.9307V1.4317H71.7996V2.30343Z" fill="black"/>
<path d="M139.813 15.182L139.418 16.0729L139.113 15.4684L132.597 1.4317H130.059V21.1632H131.058V4.70862L138.038 19.4834L138.96 19.477L145.393 4.65772V21.1632H148.142V1.4317H145.737L139.813 15.182Z" fill="black"/>
<path d="M125.064 1.4317H123.937L114.209 12.0197V1.4317H111.46V21.1632H114.209V13.394L116.276 10.8425L122.404 21.1632H125.751L118.243 8.99725L125.064 1.4317Z" fill="black"/>
<path d="M22.7159 10.3906C22.3405 9.82431 21.8251 9.328 21.1824 8.92713C21.0997 8.87623 21.0106 8.82532 20.9215 8.77442C21.2588 8.16994 21.4942 7.56546 21.6151 6.9737C21.7614 6.26742 21.7487 5.57385 21.5769 4.91847C21.4051 4.26309 21.0742 3.63316 20.5907 3.0414C20.1134 2.45601 19.4708 1.91516 18.6881 1.41885C17.9564 0.960715 17.231 0.661657 16.5247 0.534398C15.8121 0.400776 15.1185 0.426227 14.4568 0.610753C13.8014 0.795279 13.1715 1.13252 12.5924 1.6161C12.5161 1.67973 12.4397 1.74972 12.3634 1.81971C11.8925 1.31068 11.3962 0.897086 10.8681 0.60439C10.2445 0.248065 9.58275 0.0444504 8.90827 0.00627267C8.2338 -0.031905 7.52751 0.088991 6.82123 0.362598C6.1213 0.636205 5.40229 1.07525 4.68964 1.67337C4.02789 2.22694 3.51885 2.82506 3.17525 3.45499C2.83166 4.09129 2.64077 4.7594 2.60895 5.44023C2.57714 6.12107 2.71076 6.82099 2.99073 7.52092C3.02891 7.61636 3.06708 7.70544 3.11163 7.80089C2.48169 8.08722 1.93448 8.43718 1.48907 8.84441C0.954585 9.328 0.560082 9.90066 0.311926 10.5306C0.0637714 11.1605 -0.0380359 11.8668 0.00650478 12.6304C0.0510454 13.3812 0.248297 14.202 0.591896 15.061C0.916407 15.8627 1.33 16.5309 1.81995 17.0526C2.31626 17.5744 2.89528 17.9625 3.53794 18.2043C4.17424 18.4461 4.88053 18.5352 5.63772 18.4843C5.73952 18.4779 5.84133 18.4652 5.94314 18.4525C6.02586 19.1397 6.18493 19.7696 6.43945 20.3168C6.73851 20.9722 7.1521 21.5258 7.68022 21.9585C8.20199 22.3848 8.84465 22.7029 9.58275 22.9002C10.3145 23.0911 11.148 23.1547 12.077 23.0911C12.936 23.0338 13.6996 22.8493 14.3486 22.5375C15.004 22.2257 15.5448 21.7994 15.9712 21.2585C16.3975 20.724 16.7029 20.0814 16.8874 19.3496C16.9129 19.2542 16.9256 19.1524 16.9447 19.0506C17.6255 19.1906 18.2745 19.2224 18.879 19.1588C19.598 19.076 20.2471 18.8533 20.8197 18.4843C21.3924 18.1216 21.8887 17.6062 22.3023 16.9699C22.7095 16.3336 23.034 15.5573 23.2567 14.6602C23.4667 13.8266 23.524 13.0376 23.4349 12.3313C23.3395 11.6123 23.0977 10.9633 22.7222 10.3906H22.7159ZM14.3359 1.76245C14.8322 1.6161 15.3349 1.57792 15.8439 1.65428C16.3466 1.72427 16.8365 1.9088 17.2946 2.19513C17.8037 2.51328 18.2173 2.88233 18.5291 3.28956C18.8345 3.69042 19.0381 4.14219 19.1335 4.61941C19.2226 5.103 19.2035 5.63112 19.0635 6.19742C18.9363 6.71919 18.6945 7.27913 18.3445 7.85815L18.2745 7.83907C17.5237 7.64818 16.8556 7.22822 16.3593 6.63011L12.936 2.49419C13.3814 2.14422 13.8523 1.89607 14.3295 1.75608L14.3359 1.76245ZM5.87951 17.5744C5.31321 17.5935 4.79144 17.5171 4.32695 17.3517C3.84336 17.1799 3.41068 16.9126 3.04163 16.5563C2.67258 16.2 2.38625 15.7673 2.18263 15.2646C1.95993 14.7111 1.83903 14.1702 1.82631 13.6484C1.81358 13.1394 1.91539 12.6558 2.12537 12.2168C2.33535 11.7714 2.66622 11.3578 3.10526 10.9824C3.51885 10.6324 4.04062 10.327 4.66419 10.0597L4.67691 10.0725C5.16686 10.6579 5.45955 11.3896 5.51046 12.1531L5.87951 17.5744ZM3.93881 7.47001C3.74792 6.93553 3.65248 6.41376 3.6652 5.91745C3.67793 5.40206 3.79882 4.90575 4.02789 4.44761C4.25059 3.98948 4.5751 3.58225 4.99506 3.23229C5.45319 2.85051 5.93041 2.57054 6.42036 2.39874C6.89758 2.23331 7.38753 2.17604 7.87111 2.23967C8.36106 2.3033 8.85737 2.48782 9.34732 2.79325C9.80545 3.07958 10.2636 3.48044 10.709 3.98948L10.6644 4.06584C10.2509 4.72122 9.64001 5.23026 8.921 5.51659L3.94517 7.47638L3.93881 7.47001ZM15.4048 20.2595C15.0931 20.6668 14.7049 20.9976 14.2532 21.2331C13.8014 21.4749 13.2987 21.6085 12.7579 21.6467C12.1597 21.6848 11.6062 21.6339 11.1162 21.4876C10.6326 21.3412 10.2 21.0995 9.84363 20.7622C9.4873 20.425 9.19461 19.9859 8.9719 19.4451C8.76829 18.9488 8.63467 18.3507 8.5774 17.6762L8.60922 17.6635C9.32187 17.3771 10.1109 17.3262 10.8553 17.5108L16.0984 18.8406C15.9393 19.3815 15.7103 19.8587 15.4048 20.2532V20.2595ZM16.2384 16.1236L8.51377 16.8617L5.42774 9.74795L11.2435 4.61305L17.9246 8.55172L16.2384 16.1236ZM22.0987 13.5657C21.9523 14.1448 21.7296 14.6538 21.4369 15.0801C21.1506 15.5001 20.7815 15.8309 20.3552 16.0664C19.9225 16.3018 19.4135 16.4481 18.8345 16.4863C18.3 16.5245 17.6891 16.4672 17.0338 16.3145C16.9829 15.551 17.1737 14.7938 17.581 14.1448L20.4698 9.52525C20.9343 9.8434 21.316 10.2061 21.596 10.6197C21.8887 11.046 22.0796 11.5169 22.1687 12.0195C22.2577 12.5222 22.2323 13.044 22.0987 13.5721V13.5657Z" fill="black"/>
</g>
<defs>
<clipPath id="clip0_3103_1873">
<rect width="169" height="23.123" fill="white"/>
</clipPath>
</defs>
</svg>
